<?xml version="1.0" encoding="UTF-8"?>
<svg version="1.1" xmlns="http://www.w3.org/2000/svg" width="348" height="348">
<path d="M0 0 C8.63325467 6.04162755 15.78191296 14.79858607 18.34375 25.16015625 C20.05688065 36.32146199 17.70128243 45.38212225 11.66796875 54.8671875 C4.90086433 63.96727652 -4.25226471 69.48670206 -15.3671875 71.140625 C-28.30594605 72.50259958 -38.98858985 69.81604316 -49.45703125 62.0546875 C-57.6710456 55.16715994 -62.35460565 45.81235953 -63.55078125 35.1796875 C-64.00361779 23.10404635 -59.01979367 13.66582312 -51.01953125 4.9296875 C-37.67153118 -7.79816213 -15.6062227 -9.07900735 0 0 Z " fill="#0299D0" transform="translate(198.26953125,41.3203125)"/>
<path d="M0 0 C3.96479572 1.47930193 6.77588233 3.23647057 10 6 C5.88442946 15.27671846 -2.24708585 23.37206998 -8.81762695 31.05029297 C-13.60427265 36.66373057 -18.1625659 42.44345486 -22.66699219 48.28466797 C-24.0046813 50.00602396 -25.36365266 51.70872988 -26.7265625 53.41015625 C-27.56827521 54.48132563 -28.40944696 55.55292038 -29.25 56.625 C-29.99765625 57.56601563 -30.7453125 58.50703125 -31.515625 59.4765625 C-33.19437832 61.79933138 -33.19437832 61.79933138 -32.89453125 63.9921875 C-31.7728037 66.50995152 -30.61358074 69.00711092 -29.4375 71.5 C-26.16136759 79.31890903 -25.3813092 86.77079436 -28.625 94.75 C-29.37362962 96.189873 -30.16619073 97.60772034 -31 99 C-31.42410156 99.7115625 -31.84820312 100.423125 -32.28515625 101.15625 C-36.64748569 107.66936583 -42.16955624 110.482277 -49.3125 113.3125 C-60.70582299 115.43667886 -70.73682877 113.85593758 -80.375 107.25 C-86.71615709 102.10430695 -90.31668766 95.05913945 -91.40625 86.9921875 C-91.69339686 77.44455431 -89.38729707 70.19350978 -83.171875 62.8359375 C-74.80218637 54.84050324 -66.01033139 53.55329117 -54.83203125 53.76171875 C-51 54 -51 54 -47.39453125 54.953125 C-44.12996348 55.34275738 -44.12996348 55.34275738 -42.44360352 53.83911133 C-40.77999674 51.994147 -39.32684569 50.07841819 -37.875 48.0625 C-36.7402767 46.57629327 -35.60483985 45.09063111 -34.46875 43.60546875 C-33.60830078 42.45570557 -33.60830078 42.45570557 -32.73046875 41.28271484 C-30.04084368 37.73474724 -27.20445784 34.31161586 -24.375 30.875 C-18.49269216 23.65371638 -12.72558539 16.34586234 -7 9 C-6.26136719 8.05253906 -5.52273437 7.10507813 -4.76171875 6.12890625 C-3.17250785 4.08745497 -1.58495589 2.04475537 0 0 Z " fill="#0299D1" transform="translate(139,110)"/>
<path d="M0 0 C6.26234783 2.48999914 11.06466578 11.7582725 15.0625 16.9921875 C18.91014622 22.02506411 22.7989969 27.02596292 26.69873047 32.01855469 C29.54561352 35.66337461 32.3777124 39.31644198 35.1640625 43.0078125 C35.6597876 43.65758057 36.1555127 44.30734863 36.66625977 44.97680664 C37.59025851 46.18857451 38.50660976 47.40622657 39.41381836 48.63061523 C41.10993908 50.83972525 42.45248045 52.54844614 45.01953125 53.71484375 C47.216361 53.78983593 48.83926895 53.34479207 50.96484375 52.78125 C61.83108265 52.00143756 70.99531817 52.57941266 79.77734375 59.59375 C86.87325355 66.22106199 90.28593647 73.25164953 90.98828125 82.94140625 C90.91499887 91.82078813 86.21097636 98.17329155 80.40625 104.47265625 C74.20304926 110.40809293 66.45500135 112.95089367 57.96484375 113.28125 C48.51411157 112.91399357 39.72746633 109.4823942 32.96484375 102.78125 C26.72720573 94.82507906 24.92070469 86.79492103 25.96484375 76.78125 C27.4383027 71.46808769 29.53944174 67.09980841 32.96484375 62.78125 C31.6948678 60.10380573 30.31381989 57.74800827 28.53125 55.3828125 C28.05292725 54.74585449 27.57460449 54.10889648 27.08178711 53.45263672 C26.5688208 52.7773291 26.05585449 52.10202148 25.52734375 51.40625 C24.99310791 50.69871582 24.45887207 49.99118164 23.90844727 49.26220703 C19.13103419 42.95576799 14.25762998 36.72731847 9.34570312 30.52539062 C6.02817938 26.33508129 2.72144308 22.13636234 -0.5703125 17.92578125 C-2.06594045 16.01772975 -3.57116906 14.11708232 -5.09375 12.23046875 C-5.65191406 11.52535156 -6.21007812 10.82023437 -6.78515625 10.09375 C-7.254375 9.51238281 -7.72359375 8.93101563 -8.20703125 8.33203125 C-8.4803125 7.82027344 -8.75359375 7.30851562 -9.03515625 6.78125 C-7.71073094 2.80797407 -4.50444943 -0.48416347 0 0 Z " fill="#0299D0" transform="translate(211.03515625,111.21875)"/>
<path d="M0 0 C3.96 0 7.92 0 12 0 C12.495 20.295 12.495 20.295 13 41 C16.96 42.98 20.92 44.96 25 47 C32.48661085 54.28149822 36.3801618 60.62671527 37.05859375 71.1640625 C36.88800376 79.42061789 33.62359935 86.07035443 28 92 C21.29113513 98.36260087 13.80954203 101.02782978 4.625 101.4375 C-5.00227631 101.0975538 -13.19190083 98.04308485 -20.08984375 91.2578125 C-26.12333426 84.12620204 -28.56849473 76.32573272 -28 67 C-26.38856351 58.27436981 -21.72760206 51.66749507 -15 46 C-10.04379009 43.02627405 -5.82122898 41 0 41 C0 27.47 0 13.94 0 0 Z " fill="#0399D0" transform="translate(170,123)"/>
<path d="M0 0 C1.15224028 0.92961422 2.29659176 1.8690125 3.4375 2.8125 C4.07558594 3.33457031 4.71367187 3.85664063 5.37109375 4.39453125 C7 6 7 6 8 9 C2.43629022 14.0253171 -3.3430529 18.61486895 -9.375 23.0625 C-16.16730677 28.10975022 -22.9005176 33.21939626 -29.5625 38.4375 C-35.06814243 42.74703598 -40.62305315 46.94851058 -46.30859375 51.01953125 C-50.14147655 53.83995444 -53.85165472 56.80937441 -57.57006836 59.77832031 C-60.64165817 62.21191576 -63.74656071 64.55374288 -66.96875 66.78515625 C-67.61223389 67.23133301 -68.25571777 67.67750977 -68.91870117 68.13720703 C-70.15419159 68.98550173 -71.39632315 69.82422744 -72.64575195 70.65185547 C-75.8598431 72.83121837 -75.8598431 72.83121837 -77.89453125 76.046875 C-77.99816211 77.96596503 -77.93797882 79.89164614 -77.875 81.8125 C-77.84678963 86.88096231 -79.03601703 90.93639471 -82.6171875 94.69921875 C-87.74289444 99.24195902 -92.03568784 101.53571252 -99 102 C-104.67427062 101.29630108 -109.32573708 99.23602817 -114 96 C-118.18006919 90.60991079 -119.41607113 86.33160301 -119.34765625 79.63671875 C-118.6175834 74.09964941 -115.44432342 70.37210724 -111.5 66.625 C-107.24511275 63.85932329 -103.70408628 62.72089349 -98.625 62.75 C-97.28308594 62.74226563 -97.28308594 62.74226563 -95.9140625 62.734375 C-93 63 -93 63 -89.56640625 64.31640625 C-85.8995253 65.41972072 -85.8995253 65.41972072 -82.67578125 63.10546875 C-81.53595661 62.1548315 -80.415587 61.18053094 -79.3125 60.1875 C-78.07788439 59.14717648 -76.84219063 58.10813124 -75.60546875 57.0703125 C-74.99622559 56.54727539 -74.38698242 56.02423828 -73.75927734 55.48535156 C-71.29266897 53.40280295 -68.7201393 51.4814161 -66.125 49.5625 C-65.15691406 48.840625 -64.18882812 48.11875 -63.19140625 47.375 C-62.13824219 46.59125 -61.08507812 45.8075 -60 45 C-57.35243076 43.0231483 -54.70696681 41.04349961 -52.0625 39.0625 C-51.38525879 38.55517334 -50.70801758 38.04784668 -50.01025391 37.52514648 C-45.65100994 34.25388541 -41.31571154 30.95344478 -37 27.625 C-35.96230469 26.82578125 -34.92460937 26.0265625 -33.85546875 25.203125 C-32.06394993 23.82088613 -30.27455263 22.43588851 -28.48828125 21.046875 C-27.77027344 20.49515625 -27.05226563 19.9434375 -26.3125 19.375 C-25.40951172 18.67503906 -25.40951172 18.67503906 -24.48828125 17.9609375 C-23 17 -23 17 -21 17 C-21 16.34 -21 15.68 -21 15 C-18.8448556 13.31115591 -16.68977466 11.73693718 -14.4375 10.1875 C-13.82841797 9.76146484 -13.21933594 9.33542969 -12.59179688 8.89648438 C-11.35956588 8.03457465 -10.12566988 7.17504051 -8.89013672 6.31787109 C-5.90770203 4.23841069 -2.95495057 2.11828503 0 0 Z " fill="#0698CE" transform="translate(231,215)"/>
<path d="M0 0 C4.13347071 0.47239665 7.35761877 2.05174957 11 4 C10.29763613 7.74349799 8.671905 10.72330895 6.8671875 14.05859375 C6.55226349 14.64359146 6.23733948 15.22858917 5.91287231 15.83131409 C4.90440991 17.70232505 3.88984452 19.56994446 2.875 21.4375 C2.2157357 22.65798167 1.5568779 23.87868302 0.8984375 25.09960938 C-1.71917557 29.94945344 -4.3420309 34.79634753 -6.98339844 39.63330078 C-7.60504883 40.77653809 -8.22669922 41.91977539 -8.8671875 43.09765625 C-9.4226123 44.11480713 -9.97803711 45.13195801 -10.55029297 46.17993164 C-13.1494391 50.79918405 -13.1494391 50.79918405 -13.8125 55.875 C-12.95559699 58.21216003 -12.95559699 58.21216003 -11.4375 61.1875 C-9.29111307 66.16031725 -9.02939537 71.04643968 -10.7265625 76.2109375 C-13.13221045 81.47207002 -16.12433099 84.52330511 -21.3125 87.1875 C-28.63148058 89.40021506 -34.13675488 89.49727099 -41 86 C-45.07946095 83.22204803 -48.24090168 80.48656755 -50.5 76.0625 C-51.72753599 68.54384203 -51.4022607 63.32570998 -47 57 C-43.89032007 53.63472994 -40.42981066 51.23622623 -36 50 C-35.34273926 50.03923584 -34.68547852 50.07847168 -34.00830078 50.11889648 C-31.32915787 50.19591676 -29.5063926 49.98430776 -27 49 C-23.99443264 45.48907877 -22.16503766 41.46670339 -20.1875 37.3125 C-19.29380327 35.54461742 -18.40007034 33.77675049 -17.50300598 32.01057434 C-16.58970298 30.20292746 -15.69060854 28.3887097 -14.79296875 26.57324219 C-12.05732523 21.12132516 -9.12746892 15.78114958 -6.1875 10.4375 C-5.67791748 9.4988208 -5.16833496 8.5601416 -4.64331055 7.59301758 C-4.17707275 6.73603271 -3.71083496 5.87904785 -3.23046875 4.99609375 C-2.82207764 4.24513428 -2.41368652 3.4941748 -1.99291992 2.72045898 C-1 1 -1 1 0 0 Z " fill="#0598CE" transform="translate(244,228)"/>
<path d="M0 0 C4.09765533 0.47805979 8.00520466 0.97203526 12 2 C10.54856331 8.7388132 8.88823067 15.39910221 7.125 22.0625 C4.6811165 31.3587088 2.30257886 40.66778334 0 50 C0.61488281 50.26683594 1.22976562 50.53367187 1.86328125 50.80859375 C5.20744381 52.67325477 6.61456575 55.56255463 8 59 C9.42033206 64.35503575 9.36608113 69.03355233 7.15234375 74.14453125 C4.0056 79.21132203 -1.25424953 82.94673947 -6.97265625 84.5546875 C-13.64284341 85.57703394 -19.06001638 84.15414074 -25 81 C-29.27808718 77.48139346 -31.65212784 72.77893222 -32.3359375 67.31640625 C-32.42083336 61.33124829 -32.18826348 57.62913332 -28 53 C-23.20946015 48.41440303 -19.67154742 45.87949586 -13 46 C-12.83709473 45.32662598 -12.67418945 44.65325195 -12.50634766 43.95947266 C-10.49475439 35.76931654 -8.27348234 27.64822288 -5.98339844 19.53271484 C-5.36631763 17.34420754 -4.75334167 15.15457641 -4.140625 12.96484375 C-3.74763837 11.56764009 -3.35441816 10.17050211 -2.9609375 8.7734375 C-2.60821777 7.51966309 -2.25549805 6.26588867 -1.89208984 4.97412109 C-1 2 -1 2 0 0 Z " fill="#0699CE" transform="translate(63,232)"/>
<path d="M0 0 C0.77836609 1.8215332 0.77836609 1.8215332 1.3503418 4.05078125 C1.57034348 4.88504639 1.79034515 5.71931152 2.01701355 6.57885742 C2.35470512 7.9320105 2.35470512 7.9320105 2.69921875 9.3125 C2.9391304 10.23716064 3.17904205 11.16182129 3.42622375 12.11450195 C4.19084302 15.073662 4.93900214 18.03672601 5.6875 21 C6.20276841 22.99765601 6.7190323 24.99505553 7.23632812 26.9921875 C8.17587415 30.64308733 9.11535848 34.29396715 10.0378418 37.94921875 C10.224207 38.68487061 10.4105722 39.42052246 10.60258484 40.1784668 C11 42 11 42 11 44 C12.010625 44.0825 13.02125 44.165 14.0625 44.25 C19.99588976 45.14899845 24.36076461 47.66180261 27.9375 52.4375 C31.04351849 57.9765663 31.06687126 63.85205845 30 70 C27.59072148 75.54572111 23.57482961 78.97115876 18.06640625 81.3125 C11.10616223 83.62819555 5.63749705 83.26512422 -1 80 C-5.81349672 77.00203879 -8.94877074 73.60889211 -10.62890625 68.140625 C-11.83933505 61.158362 -9.98338512 55.69055017 -6 50 C-4.69437092 48.96408954 -3.36525206 47.95596266 -2 47 C-2.51767555 44.74923673 -3.03872854 42.49934907 -3.5625 40.25 C-3.73160889 39.52224365 -3.90071777 38.7944873 -4.07495117 38.04467773 C-5.27955229 32.91693461 -6.55156778 27.80946093 -7.859375 22.70703125 C-8.34168579 20.81645996 -8.34168579 20.81645996 -8.83374023 18.88769531 C-9.48363426 16.34777525 -10.13935219 13.8093379 -10.80102539 11.27246094 C-11.10000732 10.10102539 -11.39898926 8.92958984 -11.70703125 7.72265625 C-11.9800708 6.66828369 -12.25311035 5.61391113 -12.53442383 4.52758789 C-13 2 -13 2 -12 0 C-10.0390625 -0.703125 -10.0390625 -0.703125 -7.625 -1.25 C-6.83351563 -1.44078125 -6.04203125 -1.6315625 -5.2265625 -1.828125 C-3 -2 -3 -2 0 0 Z " fill="#0598CE" transform="translate(285,234)"/>
<path d="M0 0 C6.15234375 0.5859375 6.15234375 0.5859375 8 1 C8.33 1.66 8.66 2.32 9 3 C8.67 3.99 8.34 4.98 8 6 C7.34 6 6.68 6 6 6 C6 6.99 6 7.98 6 9 C5.34 9 4.68 9 4 9 C3.67 10.98 3.34 12.96 3 15 C1.68 14.67 0.36 14.34 -1 14 C-1 13.34 -1 12.68 -1 12 C-1.66 12 -2.32 12 -3 12 C-3.0984702 16.13574827 -2.77403558 19.93631321 -2 24 C-2.556875 24.268125 -3.11375 24.53625 -3.6875 24.8125 C-6.19712523 26.10122647 -8.59334236 27.52926478 -11 29 C-11.66 28.34 -12.32 27.68 -13 27 C-13.66 26.67 -14.32 26.34 -15 26 C-13.71937515 24.2925002 -12.38232443 22.62626404 -11 21 C-10.34 21 -9.68 21 -9 21 C-9 20.34 -9 19.68 -9 19 C-8.01 19 -7.02 19 -6 19 C-6.05220703 17.95199219 -6.05220703 17.95199219 -6.10546875 16.8828125 C-6.14607422 15.51769531 -6.14607422 15.51769531 -6.1875 14.125 C-6.22230469 13.22007812 -6.25710937 12.31515625 -6.29296875 11.3828125 C-6.19628906 10.59648437 -6.09960938 9.81015625 -6 9 C-5.01 8.34 -4.02 7.68 -3 7 C-1.92863949 4.69855891 -0.92010283 2.3659787 0 0 Z " fill="#019AD2" transform="translate(241,237)"/>
<path d="M0 0 C6.75650641 2.70260257 11.90433595 13.07895812 15.97265625 18.7890625 C15.31265625 19.1190625 14.65265625 19.4490625 13.97265625 19.7890625 C13.56015625 19.0053125 13.14765625 18.2215625 12.72265625 17.4140625 C10.93337855 14.73014594 9.92277486 13.90807301 6.97265625 12.7890625 C7.30265625 12.1290625 7.63265625 11.4690625 7.97265625 10.7890625 C7.31265625 10.7890625 6.65265625 10.7890625 5.97265625 10.7890625 C5.97265625 10.1290625 5.97265625 9.4690625 5.97265625 8.7890625 C3.48004272 10.95655253 2.25853765 12.4537795 1.97265625 15.7890625 C2.84316404 18.98529898 2.84316404 18.98529898 3.97265625 21.7890625 C0.59002724 18.61784781 -2.43312324 15.22712711 -5.40234375 11.6640625 C-6.11132812 10.81585938 -6.8203125 9.96765625 -7.55078125 9.09375 C-8.03804687 8.33320312 -8.5253125 7.57265625 -9.02734375 6.7890625 C-7.7038602 2.81861186 -4.50164379 -0.46837912 0 0 Z " fill="#0697CB" transform="translate(211.02734375,111.2109375)"/>
<path d="M0 0 C0.495 0.99 0.495 0.99 1 2 C0.01 3.32 -0.98 4.64 -2 6 C-1.34 6.99 -0.68 7.98 0 9 C-1.65 10.65 -3.3 12.3 -5 14 C-2.72584713 17.37088267 -2.72584713 17.37088267 1 19 C-0.65 20.98 -2.3 22.96 -4 25 C-4.99 24.01 -5.98 23.02 -7 22 C-6.34 21.67 -5.68 21.34 -5 21 C-5 20.34 -5 19.68 -5 19 C-5.99 18.34 -6.98 17.68 -8 17 C-7.67 16.67 -7.34 16.34 -7 16 C-7.99 15.67 -8.98 15.34 -10 15 C-10 16.32 -10 17.64 -10 19 C-10.66 19 -11.32 19 -12 19 C-11.67 19.99 -11.34 20.98 -11 22 C-13.70803222 23.35401611 -15.56482317 22.91421523 -18.5625 22.625 C-19.55378906 22.53476563 -20.54507813 22.44453125 -21.56640625 22.3515625 C-24 22 -24 22 -25 21 C-27.34987262 20.76472227 -29.70556039 20.58613583 -32.0625 20.4375 C-33.35285156 20.35371094 -34.64320312 20.26992187 -35.97265625 20.18359375 C-37.47119141 20.09271484 -37.47119141 20.09271484 -39 20 C-39 19.67 -39 19.34 -39 19 C-36.47909222 18.9727633 -33.95848543 18.95304793 -31.4375 18.9375 C-30.73302734 18.92912109 -30.02855469 18.92074219 -29.30273438 18.91210938 C-28.60341797 18.90888672 -27.90410156 18.90566406 -27.18359375 18.90234375 C-26.47992676 18.8974292 -25.77625977 18.89251465 -25.05126953 18.88745117 C-23 19 -23 19 -19.39453125 19.984375 C-16.08003893 20.35212779 -16.08003893 20.35212779 -14.28491211 18.64672852 C-12.46830208 16.61548254 -10.85248069 14.51638226 -9.25 12.3125 C-8.68667969 11.57837891 -8.12335938 10.84425781 -7.54296875 10.08789062 C-6.00470514 8.07505632 -4.49884146 6.0422615 -3 4 C-2.00127715 2.66570976 -1.00163033 1.33210903 0 0 Z " fill="#1196C7" transform="translate(111,145)"/>
<path d="M0 0 C-0.33 2.97 -0.66 5.94 -1 9 C-3.31 8.34 -5.62 7.68 -8 7 C-9.231394 10.69418201 -8.64432764 13.2056261 -8 17 C-7.34 17 -6.68 17 -6 17 C-6.33 18.98 -6.66 20.96 -7 23 C-8.48663983 20.24454302 -9.4150229 17.72989312 -10.0703125 14.671875 C-10.33134766 13.47304687 -10.33134766 13.47304687 -10.59765625 12.25 C-10.77167969 11.425 -10.94570313 10.6 -11.125 9.75 C-11.30675781 8.90953125 -11.48851562 8.0690625 -11.67578125 7.203125 C-12.12199541 5.13644889 -12.56164445 3.06835723 -13 1 C-12.05511719 0.68546875 -11.11023438 0.3709375 -10.13671875 0.046875 C-8.3599746 -0.54611059 -6.58433824 -1.1425126 -4.8125 -1.75 C-3 -2 -3 -2 0 0 Z " fill="#0997CA" transform="translate(285,234)"/>
<path d="M0 0 C0.93423645 3.01031744 1.04449911 3.86650268 0 7 C-0.66 7 -1.32 7 -2 7 C-2 7.66 -2 8.32 -2 9 C-2.66 9 -3.32 9 -4 9 C-4.0270491 12.06255961 -4.04686298 15.1248786 -4.0625 18.1875 C-4.07087891 19.05181641 -4.07925781 19.91613281 -4.08789062 20.80664062 C-4.10396812 25.00286769 -4.07559038 28.90936886 -3 33 C-2.34 33 -1.68 33 -1 33 C-1 33.99 -1 34.98 -1 36 C-0.34 36 0.32 36 1 36 C1 36.66 1 37.32 1 38 C1.99 38.33 2.98 38.66 4 39 C4.66 39.33 5.32 39.66 6 40 C6.625 42.0625 6.625 42.0625 7 44 C1.35960028 42.67284713 -1.10413756 38.6766514 -4 34 C-7.89330848 26.99785565 -8.34607921 18.81685206 -6.203125 11.1484375 C-4.59702142 6.96021354 -2.79392614 3.52242838 0 0 Z " fill="#1C92BA" transform="translate(244,174)"/>
<path d="M0 0 C-0.33 1.65 -0.66 3.3 -1 5 C-0.34 5.33 0.32 5.66 1 6 C0.8125 7.875 0.8125 7.875 0 10 C-1.64991582 10.70710678 -3.3207762 11.36562656 -5 12 C-7.112341 13.56194229 -9.02812906 15.25741638 -11 17 C-11.6875 14.6875 -11.6875 14.6875 -12 12 C-10.5625 10.4375 -10.5625 10.4375 -9 9 C-9 7.68 -9 6.36 -9 5 C-7.5390625 3.515625 -7.5390625 3.515625 -5.625 2.25 C-4.99851563 1.82203125 -4.37203125 1.3940625 -3.7265625 0.953125 C-2 0 -2 0 0 0 Z " fill="#019AD1" transform="translate(166,267)"/>
<path d="M0 0 C0.33 1.32 0.66 2.64 1 4 C0.34 4 -0.32 4 -1 4 C-0.67 5.98 -0.34 7.96 0 10 C0.66 10 1.32 10 2 10 C2 10.66 2 11.32 2 12 C1.01 12.33 0.02 12.66 -1 13 C-2.83115894 13.99515224 -2.83115894 13.99515224 -4 16 C-4.45428433 20.54284331 -4.3477391 23.66631283 -2.4375 27.8125 C-1 31 -1 31 -2 34 C-6.11661809 26.88780714 -7.30046184 20.14202196 -6 12 C-4.36270619 7.76007152 -2.35181629 3.88469656 0 0 Z " fill="#1493C3" transform="translate(54,175)"/>
<path d="M0 0 C0.9178125 -0.00515625 1.835625 -0.0103125 2.78125 -0.015625 C5.6778282 0.26737402 7.86375653 1.04649755 10.5 2.25 C7.5 3.25 7.5 3.25 4.5 2.25 C3.10560336 2.18334624 1.70830125 2.16461801 0.3125 2.1875 C-0.945625 2.208125 -2.20375 2.22875 -3.5 2.25 C-3.5 2.91 -3.5 3.57 -3.5 4.25 C-4.49 4.25 -5.48 4.25 -6.5 4.25 C-6.83 6.23 -7.16 8.21 -7.5 10.25 C-8.49 9.92 -9.48 9.59 -10.5 9.25 C-10.5 8.26 -10.5 7.27 -10.5 6.25 C-11.675625 6.9615625 -11.675625 6.9615625 -12.875 7.6875 C-14.38948678 8.58898023 -15.9235897 9.46179485 -17.5 10.25 C-15.70530353 5.68168172 -12.55317581 3.22310181 -8.17578125 1.1484375 C-5.29267484 0.18038717 -3.03320006 -0.01704045 0 0 Z " fill="#0D95C6" transform="translate(132.5,277.75)"/>
<path d="M0 0 C1.98 0 3.96 0 6 0 C2.40517925 4.73862735 -2.3700513 5.97013134 -8 7 C-12.01602969 7.22206282 -15.98337558 7.18633825 -20 7 C-20 6.67 -20 6.34 -20 6 C-18.84371094 5.81824219 -18.84371094 5.81824219 -17.6640625 5.6328125 C-16.66117187 5.46523437 -15.65828125 5.29765625 -14.625 5.125 C-13.62726563 4.96257812 -12.62953125 4.80015625 -11.6015625 4.6328125 C-8.8574885 4.2041198 -8.8574885 4.2041198 -7 2 C-7 2.66 -7 3.32 -7 4 C-6.21625 3.484375 -5.4325 2.96875 -4.625 2.4375 C-3.325625 1.7259375 -3.325625 1.7259375 -2 1 C-1.34 1.33 -0.68 1.66 0 2 C0 1.34 0 0.68 0 0 Z " fill="#249BC8" transform="translate(94,217)"/>
<path d="M0 0 C1.32 0.66 2.64 1.32 4 2 C2.68 2 1.36 2 0 2 C-0.66 3.65 -1.32 5.3 -2 7 C-1.34 7.33 -0.68 7.66 0 8 C0 8.66 0 9.32 0 10 C-1.11375 10.4125 -2.2275 10.825 -3.375 11.25 C-6.67343017 12.63811691 -7.56827248 13.69601342 -9 17 C-11.125 17.75 -11.125 17.75 -13 18 C-11.70944264 15.25032269 -10.28915704 12.92126698 -8.3984375 10.546875 C-7.66367188 9.61875 -7.66367188 9.61875 -6.9140625 8.671875 C-6.40617188 8.03765625 -5.89828125 7.4034375 -5.375 6.75 C-4.859375 6.1003125 -4.34375 5.450625 -3.8125 4.78125 C-2.54485821 3.18496033 -1.27285639 1.59213474 0 0 Z " fill="#1592BE" transform="translate(139,110)"/>
<path d="M0 0 C0.98120464 3.05263664 0.98120464 4.94736336 0 8 C-0.66 8 -1.32 8 -2 8 C-2 13.94 -2 19.88 -2 26 C-1.34 26.33 -0.68 26.66 0 27 C0.40729228 29.32156597 0.74438677 31.6568787 1 34 C-3.89034558 28.66507754 -4.39432196 21.52974892 -4.265625 14.6015625 C-3.74873245 9.53905608 -2.27701338 4.55402677 0 0 Z " fill="#1D90B7" transform="translate(139,57)"/>
<path d="M0 0 C2.84237106 1.42118553 3.00706555 3.03376545 4 6 C5.44222668 13.15691437 5.29677011 19.39193656 2 26 C1.34 26.66 0.68 27.32 0 28 C0 25.36 0 22.72 0 20 C0.33 20 0.66 20 1 20 C1.02712351 17.60408962 1.0468982 15.20849043 1.0625 12.8125 C1.07087891 12.13896484 1.07925781 11.46542969 1.08789062 10.77148438 C1.10606538 7.04565869 0.89299392 3.6211958 0 0 Z " fill="#2892BB" transform="translate(297,180)"/>
<path d="M0 0 C10.80833641 -0.51880015 19.89379428 -0.36056428 28.625 6.75 C29.40875 7.4925 30.1925 8.235 31 9 C29.33333333 9 27.66666667 9 26 9 C26 8.34 26 7.68 26 7 C25.34 7 24.68 7 24 7 C23.67 7.99 23.34 8.98 23 10 C22.34 9.67 21.68 9.34 21 9 C21.33 7.35 21.66 5.7 22 4 C14.6802723 2.13905228 7.53216715 1.44238385 0 1 C0 0.67 0 0.34 0 0 Z " fill="#1F8EB3" transform="translate(262,164)"/>
<path d="M0 0 C0.33 0.99 0.66 1.98 1 3 C0.360625 3.639375 -0.27875 4.27875 -0.9375 4.9375 C-4.11913562 9.66174683 -3.31792942 14.46272926 -3 20 C-2.34 20 -1.68 20 -1 20 C-1 21.98 -1 23.96 -1 26 C-4.71905926 23.52062716 -4.96900369 22.28260004 -6 18 C-6.61967748 11.59666605 -5.48348806 7.41593399 -2 2 C-1.34 1.34 -0.68 0.68 0 0 Z " fill="#208FB5" transform="translate(199,283)"/>
<path d="M0 0 C8.98258999 1.87137292 14.81472934 7.5054658 21 14 C20.67 14.66 20.34 15.32 20 16 C16.87018088 15.66466224 15.99938841 14.99933599 13.8125 12.625 C12 10 12 10 11 7 C8.45327745 5.31250296 8.45327745 5.31250296 5.4375 3.8125 C4.42558594 3.28269531 3.41367188 2.75289062 2.37109375 2.20703125 C1.58863281 1.80871094 0.80617187 1.41039062 0 1 C0 0.67 0 0.34 0 0 Z " fill="#1D94BB" transform="translate(189,38)"/>
<path d="M0 0 C2.31 0.66 4.62 1.32 7 2 C7 2.66 7 3.32 7 4 C8.98 3.67 10.96 3.34 13 3 C12.67 3.99 12.34 4.98 12 6 C13.98 6 15.96 6 18 6 C18 6.66 18 7.32 18 8 C21.3 8 24.6 8 28 8 C28 8.33 28 8.66 28 9 C19.38794729 9.61030295 10.32034375 8.92904046 3.1328125 3.62109375 C1.75 2.25 1.75 2.25 0 0 Z " fill="#2496C3" transform="translate(152,215)"/>
<path d="M0 0 C1.231394 2.46278801 1.07159196 4.2795055 1 7 C-1.70803222 8.35401611 -3.56482317 7.91421523 -6.5625 7.625 C-8.04943359 7.48964844 -8.04943359 7.48964844 -9.56640625 7.3515625 C-12 7 -12 7 -13 6 C-15.34987262 5.76472227 -17.70556039 5.58613583 -20.0625 5.4375 C-21.99802734 5.31181641 -21.99802734 5.31181641 -23.97265625 5.18359375 C-25.47119141 5.09271484 -25.47119141 5.09271484 -27 5 C-27 4.67 -27 4.34 -27 4 C-24.47909222 3.9727633 -21.95848543 3.95304793 -19.4375 3.9375 C-18.38079102 3.92493164 -18.38079102 3.92493164 -17.30273438 3.91210938 C-13.77028374 3.8958308 -10.63241266 4.06225269 -7.125 4.65625 C-5.578125 4.82640625 -5.578125 4.82640625 -4 5 C-1.50789479 2.69931981 -1.50789479 2.69931981 0 0 Z " fill="#2195C0" transform="translate(99,160)"/>
<path d="M0 0 C0.66 0.99 1.32 1.98 2 3 C1.071875 4.3303125 1.071875 4.3303125 0.125 5.6875 C-2.02899881 8.81593129 -2.02899881 8.81593129 -3.125 11.8125 C-4 14 -4 14 -6 15 C-6 16.65 -6 18.3 -6 20 C-6.99 20 -7.98 20 -9 20 C-9.33 19.34 -9.66 18.68 -10 18 C-9.19555664 16.12060547 -9.19555664 16.12060547 -7.91015625 13.8671875 C-7.45576172 13.06152344 -7.00136719 12.25585938 -6.53320312 11.42578125 C-6.04787109 10.58402344 -5.56253906 9.74226562 -5.0625 8.875 C-4.58103516 8.02550781 -4.09957031 7.17601562 -3.60351562 6.30078125 C-2.40942817 4.19634989 -1.20803163 2.09644809 0 0 Z " fill="#2299C3" transform="translate(242,231)"/>
<path d="M0 0 C0.33 0 0.66 0 1 0 C1.55884675 8.0256603 0.6600545 14.75333691 -3 22 C-4.63671875 23.8125 -4.63671875 23.8125 -6 25 C-5.814375 23.88625 -5.62875 22.7725 -5.4375 21.625 C-4.68319343 18.17431139 -4.68319343 18.17431139 -6 16 C-5.34 16 -4.68 16 -4 16 C-4 15.34 -4 14.68 -4 14 C-3.01 14 -2.02 14 -1 14 C-0.67 9.38 -0.34 4.76 0 0 Z " fill="#1D8EB8" transform="translate(216,69)"/>
<path d="M0 0 C2.375 0.1875 2.375 0.1875 5 1 C6.86007925 4.27728249 7 6.1659754 7 10 C7.99 11.485 7.99 11.485 9 13 C5.17982999 11.49921893 3.24629201 9.40816719 1 6 C0.25 2.6875 0.25 2.6875 0 0 Z " fill="#0F94C0" transform="translate(275,300)"/>
<path d="M0 0 C3.47484105 3.47484105 3.96717276 7.94382129 4.04296875 12.69140625 C3.66307642 19.04355935 2.20608342 23.51863158 -1 29 C-1.6875 27.3125 -1.6875 27.3125 -2 25 C-1.53078125 24.23558594 -1.0615625 23.47117188 -0.578125 22.68359375 C1.42843448 19.27144929 1.33535925 16.99329358 1.25 13.0625 C1.23453125 11.87785156 1.2190625 10.69320312 1.203125 9.47265625 C1.01431491 6.24472988 0.60093909 3.17431534 0 0 Z " fill="#238DB7" transform="translate(203,181)"/>
<path d="M0 0 C1.9375 0.3125 1.9375 0.3125 4 1 C4.33 1.99 4.66 2.98 5 4 C7.01508358 4.73323796 7.01508358 4.73323796 9 5 C9.33 4.34 9.66 3.68 10 3 C9.9175 3.928125 9.835 4.85625 9.75 5.8125 C9.64696955 9.09105222 9.64696955 9.09105222 12 10.875 C12.66 11.24625 13.32 11.6175 14 12 C13.34 13.32 12.68 14.64 12 16 C3.55353075 5.62642369 3.55353075 5.62642369 0 0 Z " fill="#1792BD" transform="translate(225,147)"/>
<path d="M0 0 C1.94539023 3.52106829 3.05706819 7.1475537 4.1875 11 C4.55230469 12.216875 4.91710937 13.43375 5.29296875 14.6875 C5.94211789 17.72881752 6.11269179 19.16511645 5 22 C4.67 21.01 4.34 20.02 4 19 C3.01 19.33 2.02 19.66 1 20 C1.20625 19.175 1.4125 18.35 1.625 17.5 C2.02314776 13.78395422 1.48921178 11.48919546 0.48046875 7.96875 C-0.17332721 5.28978121 -0.13706995 2.74139892 0 0 Z " fill="#188EBB" transform="translate(289,254)"/>
<path d="M0 0 C0.66 0.33 1.32 0.66 2 1 C-1.09868852 5.07256205 -2.99443258 7.45982541 -8 9 C-9.34050052 9.65213539 -10.67661368 10.31379969 -12 11 C-12 11.66 -12 12.32 -12 13 C-13.32 12.67 -14.64 12.34 -16 12 C-15.26394531 11.46890625 -14.52789062 10.9378125 -13.76953125 10.390625 C-12.79371094 9.68421875 -11.81789062 8.9778125 -10.8125 8.25 C-9.84957031 7.55390625 -8.88664063 6.8578125 -7.89453125 6.140625 C-5.20870786 4.15434805 -2.59333207 2.10500812 0 0 Z " fill="#1F98C4" transform="translate(200,238)"/>
<path d="M0 0 C2.0625 0.4375 2.0625 0.4375 4 1 C3.34 1 2.68 1 2 1 C2.66 6.28 3.32 11.56 4 17 C4.66 17 5.32 17 6 17 C5.67 18.98 5.34 20.96 5 23 C2.71886934 18.75660641 1.83004002 14.48877598 0.8125 9.8125 C0.62236328 8.98041016 0.43222656 8.14832031 0.23632812 7.29101562 C-0.22457585 5.20419208 -0.61825787 3.10274533 -1 1 C-0.67 0.67 -0.34 0.34 0 0 Z " fill="#2693BC" transform="translate(273,234)"/>
<path d="M0 0 C0.99 0.33 1.98 0.66 3 1 C-2.28922815 4.92194468 -6.32646591 7.71601983 -13 8 C-12.67 7.34 -12.34 6.68 -12 6 C-11.01 6 -10.02 6 -9 6 C-8.67 5.01 -8.34 4.02 -8 3 C-6.68 3.33 -5.36 3.66 -4 4 C-4.33 3.01 -4.66 2.02 -5 1 C-3.35 1.33 -1.7 1.66 0 2 C0 1.34 0 0.68 0 0 Z " fill="#1B95C4" transform="translate(288,215)"/>
<path d="M0 0 C0 2.125 0 2.125 -1 5 C-3.49775783 7.25484692 -6.19801963 9.14265083 -9 11 C-9.66 10.67 -10.32 10.34 -11 10 C-10.34 9.01 -9.68 8.02 -9 7 C-8.01 7 -7.02 7 -6 7 C-5.67 5.02 -5.34 3.04 -5 1 C-2 0 -2 0 0 0 Z " fill="#1591C0" transform="translate(227,230)"/>
<path d="M0 0 C3.17391668 3.00235362 5.71252601 6.19753642 8.25 9.75 C8.95640625 10.73484375 9.6628125 11.7196875 10.390625 12.734375 C10.92171875 13.48203125 11.4528125 14.2296875 12 15 C11.01 15.495 11.01 15.495 10 16 C9.5875 15.21625 9.175 14.4325 8.75 13.625 C6.9607223 10.94108344 5.95011861 10.11901051 3 9 C3.33 8.34 3.66 7.68 4 7 C3.34 7 2.68 7 2 7 C2 6.34 2 5.68 2 5 C1.01 5.33 0.02 5.66 -1 6 C-0.67 4.02 -0.34 2.04 0 0 Z " fill="#198FBC" transform="translate(215,115)"/>
<path d="M0 0 C0.66 0 1.32 0 2 0 C1.40501518 3.36166422 0.25635842 5.21159678 -2 7.75 C-2.804375 8.67039063 -2.804375 8.67039063 -3.625 9.609375 C-4.07875 10.06828125 -4.5325 10.5271875 -5 11 C-5.33 11 -5.66 11 -6 11 C-6 8.36 -6 5.72 -6 3 C-5.195625 2.87625 -4.39125 2.7525 -3.5625 2.625 C-2.716875 2.41875 -1.87125 2.2125 -1 2 C-0.67 1.34 -0.34 0.68 0 0 Z " fill="#0C99C5" transform="translate(141,123)"/>
<path d="M0 0 C0.66 0.33 1.32 0.66 2 1 C-7.41002278 8.48291572 -7.41002278 8.48291572 -12 11 C-11.625 9.0625 -11.625 9.0625 -11 7 C-10.34 6.67 -9.68 6.34 -9 6 C-9.33 5.34 -9.66 4.68 -10 4 C-7.92446352 3.4465236 -6.15634036 3 -4 3 C-2.63838689 2.03886134 -1.30144802 1.04115841 0 0 Z " fill="#1F8CB4" transform="translate(168,276)"/>
<path d="M0 0 C2.64 0.33 5.28 0.66 8 1 C7.71517632 2.41805831 7.42181856 3.83440379 7.125 5.25 C6.96257812 6.03890625 6.80015625 6.8278125 6.6328125 7.640625 C6.00849925 9.96831144 5.15161458 11.89031952 4 14 C4.04640625 13.24074219 4.0928125 12.48148438 4.140625 11.69921875 C4.19476563 10.20841797 4.19476563 10.20841797 4.25 8.6875 C4.29640625 7.70136719 4.3428125 6.71523437 4.390625 5.69921875 C4.26903428 2.85596306 4.26903428 2.85596306 1.984375 1.14453125 C1.32953125 0.76683594 0.6746875 0.38914063 0 0 Z " fill="#2293BF" transform="translate(67,233)"/>
<path d="M0 0 C1.32 0.33 2.64 0.66 4 1 C3.32902328 5.19360449 1.1441606 8.40334352 -1 12 C-2.0013988 8.99580359 -2.51421457 6.12290635 -3 3 C-2.01 2.34 -1.02 1.68 0 1 C0 0.67 0 0.34 0 0 Z " fill="#1B90BB" transform="translate(251,231)"/>
<path d="M0 0 C2.625 0.9375 2.625 0.9375 5 2 C4.34 3.32 3.68 4.64 3 6 C2.34 6 1.68 6 1 6 C0.01 6.495 0.01 6.495 -1 7 C-1.99 6.34 -2.98 5.68 -4 5 C-2.25 1.125 -2.25 1.125 0 0 Z " fill="#029AD4" transform="translate(226,220)"/>
<path d="M0 0 C0.33 0.66 0.66 1.32 1 2 C0.07767578 2.03867187 0.07767578 2.03867187 -0.86328125 2.078125 C-5.99254591 2.2814648 -5.99254591 2.2814648 -10.0625 5.0625 C-10.371875 5.701875 -10.68125 6.34125 -11 7 C-13.97 6.505 -13.97 6.505 -17 6 C-12.45984617 0.74297978 -6.52168204 0.53992139 0 0 Z " fill="#2097C2" transform="translate(217,277)"/>
<path d="M0 0 C1.40378906 -0.02126953 1.40378906 -0.02126953 2.8359375 -0.04296875 C5.78618154 0.20081892 7.94864112 0.95637492 10.625 2.1875 C7.625 3.1875 7.625 3.1875 4.625 2.1875 C3.23060336 2.12084624 1.83330125 2.10211801 0.4375 2.125 C-0.820625 2.145625 -2.07875 2.16625 -3.375 2.1875 C-3.375 2.8475 -3.375 3.5075 -3.375 4.1875 C-5.685 3.8575 -7.995 3.5275 -10.375 3.1875 C-7.19723457 0.00973457 -4.29934829 0.02944759 0 0 Z " fill="#1F93BD" transform="translate(132.375,277.8125)"/>
<path d="M0 0 C2.31 0 4.62 0 7 0 C7.33 0.66 7.66 1.32 8 2 C12.29 2 16.58 2 21 2 C18.13564935 4.86435065 16.00662926 4.74150779 12 5 C7.75287847 4.35937273 3.72699433 3.17408002 0 1 C0 0.67 0 0.34 0 0 Z " fill="#2396BE" transform="translate(120,312)"/>
<path d="M0 0 C0.66 0.33 1.32 0.66 2 1 C-4.93 6.445 -4.93 6.445 -12 12 C-12.66 11.67 -13.32 11.34 -14 11 C-12.8803014 9.99406757 -11.7540588 8.9954151 -10.625 8 C-9.99851563 7.443125 -9.37203125 6.88625 -8.7265625 6.3125 C-7 5 -7 5 -5 5 C-5 4.01 -5 3.02 -5 2 C-2.625 0.9375 -2.625 0.9375 0 0 Z " fill="#2689AA" transform="translate(201,251)"/>
<path d="M0 0 C0.33 1.32 0.66 2.64 1 4 C0.34 4 -0.32 4 -1 4 C-1.13277344 4.70511719 -1.26554688 5.41023437 -1.40234375 6.13671875 C-2.01403989 9.06726299 -2.7631353 11.9278361 -3.5625 14.8125 C-3.96662109 16.27623047 -3.96662109 16.27623047 -4.37890625 17.76953125 C-4.58386719 18.50558594 -4.78882813 19.24164063 -5 20 C-5.33 20 -5.66 20 -6 20 C-5.81895467 12.26442661 -3.85167232 6.6800221 0 0 Z " fill="#1E8EB7" transform="translate(148,176)"/>
<path d="M0 0 C2.96404505 2.80804268 5.44499019 5.18315774 7 9 C5.68 9 4.36 9 3 9 C0.43228397 5.69865082 0 4.27125508 0 0 Z " fill="#1191C0" transform="translate(233,139)"/>
<path d="M0 0 C2.31 0 4.62 0 7 0 C6.79375 0.53625 6.5875 1.0725 6.375 1.625 C5.8685253 4.83267308 6.84599775 7.01317066 8 10 C6.33333333 8.33333333 4.66666667 6.66666667 3 5 C2.401875 4.443125 1.80375 3.88625 1.1875 3.3125 C0 2 0 2 0 0 Z " fill="#138FBB" transform="translate(207,123)"/>
<path d="M0 0 C0 0.66 0 1.32 0 2 C-0.99 2.66 -1.98 3.32 -3 4 C-4.06246527 5.96752828 -5.07137808 7.96587579 -6 10 C-6.99 10 -7.98 10 -9 10 C-7.6834994 5.81113445 -4.97532335 0 0 0 Z " fill="#1992BC" transform="translate(41,281)"/>
<path d="M0 0 C0.66 0 1.32 0 2 0 C2.33 1.32 2.66 2.64 3 4 C-0.4352048 6.29013653 -1.985331 6.17842973 -6 6 C-4 4 -2 2 0 0 Z " fill="#1293C2" transform="translate(155,272)"/>
<path d="M0 0 C2.31 0 4.62 0 7 0 C4.24735748 3.05849168 1.99248748 4.87391379 -2 6 C-2.99 5.67 -3.98 5.34 -5 5 C-4.34 5 -3.68 5 -3 5 C-3 4.34 -3 3.68 -3 3 C-2.01 3 -1.02 3 0 3 C0 2.01 0 1.02 0 0 Z " fill="#1F94BE" transform="translate(189,216)"/>
<path d="M0 0 C1.32 0.33 2.64 0.66 4 1 C4 2.32 4 3.64 4 5 C4.99 5.66 5.98 6.32 7 7 C2.44262737 6.56179109 -0.57653445 6.14958831 -4 3 C-2.68 2.67 -1.36 2.34 0 2 C0 1.34 0 0.68 0 0 Z " fill="#1994C3" transform="translate(67,216)"/>
<path d="M0 0 C1.98 0.66 3.96 1.32 6 2 C1.60513504 4.92990998 -2.8755882 5.30981005 -8 4.5625 C-8.66 4.376875 -9.32 4.19125 -10 4 C-10 3.67 -10 3.34 -10 3 C-6.7 2.67 -3.4 2.34 0 2 C0 1.34 0 0.68 0 0 Z " fill="#2090BF" transform="translate(217,312)"/>
<path d="M0 0 C1.98 0.495 1.98 0.495 4 1 C3.67 1.66 3.34 2.32 3 3 C3.66 3.33 4.32 3.66 5 4 C4.01 5.485 4.01 5.485 3 7 C2.34 6.67 1.68 6.34 1 6 C1.33 5.34 1.66 4.68 2 4 C1.01 4.33 0.02 4.66 -1 5 C-0.67 3.35 -0.34 1.7 0 0 Z " fill="#1293C7" transform="translate(99,210)"/>
<path d="M0 0 C0.99 0 1.98 0 3 0 C2.938125 0.721875 2.87625 1.44375 2.8125 2.1875 C3.03523996 5.52859947 4.25750308 7.19685279 6 10 C5.67 10.66 5.34 11.32 5 12 C4.54625 11.195625 4.0925 10.39125 3.625 9.5625 C2.25274335 6.91143428 2.25274335 6.91143428 0 6 C0 4.02 0 2.04 0 0 Z " fill="#2592C3" transform="translate(103,170)"/>
<path d="M0 0 C2.5 1.25 2.5 1.25 5 3 C5 4.32 5 5.64 5 7 C4.01 7.66 3.02 8.32 2 9 C1.34 6.03 0.68 3.06 0 0 Z " fill="#188EB9" transform="translate(143,112)"/>
<path d="M0 0 C0.33 0 0.66 0 1 0 C1.33 2.97 1.66 5.94 2 9 C2.66 9 3.32 9 4 9 C4 10.98 4 12.96 4 15 C1 13 1 13 0 10 C-0.06802967 8.27204648 -0.08495645 6.54164635 -0.0625 4.8125 C-0.05347656 3.91144531 -0.04445312 3.01039063 -0.03515625 2.08203125 C-0.02355469 1.39496094 -0.01195312 0.70789063 0 0 Z " fill="#1492BF" transform="translate(194,294)"/>
<path d="M0 0 C1.98 0 3.96 0 6 0 C6 0.99 6 1.98 6 3 C4 4.6875 4 4.6875 2 6 C1.34 4.02 0.68 2.04 0 0 Z " fill="#0299D6" transform="translate(245,231)"/>
<path d="M0 0 C4.31392226 0.4793247 6.16569547 1.7457985 9 5 C7.35 4.67 5.7 4.34 4 4 C4 3.34 4 2.68 4 2 C3.34 2 2.68 2 2 2 C1.67 2.99 1.34 3.98 1 5 C0.34 4.67 -0.32 4.34 -1 4 C-0.67 2.68 -0.34 1.36 0 0 Z " fill="#1090BF" transform="translate(284,169)"/>
<path d="M0 0 C0.66 0.33 1.32 0.66 2 1 C1.01 2.485 1.01 2.485 0 4 C0.31506627 7.14221967 0.31506627 7.14221967 1 10 C-0.65 8.35 -2.3 6.7 -4 5 C-3 2 -3 2 0 0 Z " fill="#1E91B5" transform="translate(206,113)"/>
<path d="M0 0 C1.32 0.66 2.64 1.32 4 2 C2.8803014 3.00593243 1.7540588 4.0045849 0.625 5 C-0.00148437 5.556875 -0.62796875 6.11375 -1.2734375 6.6875 C-3 8 -3 8 -5 8 C-5 7.01 -5 6.02 -5 5 C-4.01 5 -3.02 5 -2 5 C-2 4.34 -2 3.68 -2 3 C-1.01 3 -0.02 3 1 3 C0.67 2.01 0.34 1.02 0 0 Z " fill="#1F92C1" transform="translate(203,98)"/>
<path d="M0 0 C0 0.66 0 1.32 0 2 C-0.99 2.33 -1.98 2.66 -3 3 C-3.33 3.66 -3.66 4.32 -4 5 C-5.65 3.68 -7.3 2.36 -9 1 C-5.8035914 -0.06546953 -3.34252724 -0.07427838 0 0 Z " fill="#0C96BE" transform="translate(66,214)"/>
<path d="M0 0 C0.33 0.66 0.66 1.32 1 2 C0.0625 4.625 0.0625 4.625 -1 7 C-1.99 7 -2.98 7 -4 7 C-4.33 7.99 -4.66 8.98 -5 10 C-5.66 9.67 -6.32 9.34 -7 9 C-4.69 6.03 -2.38 3.06 0 0 Z " fill="#1B8FBD" transform="translate(119,135)"/>
<path d="M0 0 C0.33 0.66 0.66 1.32 1 2 C-1.83430453 5.2542015 -3.68607774 6.5206753 -8 7 C-5.42215154 4.35247996 -3.08351902 2.05567935 0 0 Z " fill="#1C96C2" transform="translate(223,221)"/>
<path d="M0 0 C0.57234375 0.21527344 1.1446875 0.43054688 1.734375 0.65234375 C0.11445335 1.51610271 -1.51174361 2.36810229 -3.140625 3.21484375 C-4.49800781 3.92833984 -4.49800781 3.92833984 -5.8828125 4.65625 C-6.66914062 4.98496094 -7.45546875 5.31367188 -8.265625 5.65234375 C-8.925625 5.32234375 -9.585625 4.99234375 -10.265625 4.65234375 C-9.02618224 3.78292881 -7.77355441 2.93228918 -6.515625 2.08984375 C-5.81953125 1.61417969 -5.1234375 1.13851562 -4.40625 0.6484375 C-2.265625 -0.34765625 -2.265625 -0.34765625 0 0 Z " fill="#2090B8" transform="translate(70.265625,165.34765625)"/>
<path d="M0 0 C0.99 0.33 1.98 0.66 3 1 C2.19152271 2.16945792 1.37810888 3.33550461 0.5625 4.5 C0.11003906 5.1496875 -0.34242188 5.799375 -0.80859375 6.46875 C-1.20175781 6.9740625 -1.59492188 7.479375 -2 8 C-2.33 8 -2.66 8 -3 8 C-3.36923077 3.44615385 -3.36923077 3.44615385 -1.5 1.1875 C-1.005 0.795625 -0.51 0.40375 0 0 Z " fill="#249CCA" transform="translate(131,135)"/>
<path d="M0 0 C0.33 0.66 0.66 1.32 1 2 C0.22265625 3.9453125 0.22265625 3.9453125 -0.9375 6.125 C-1.31777344 6.84945313 -1.69804687 7.57390625 -2.08984375 8.3203125 C-2.39019531 8.87460937 -2.69054687 9.42890625 -3 10 C-3.33 10 -3.66 10 -4 10 C-4 8.35 -4 6.7 -4 5 C-3.34 5 -2.68 5 -2 5 C-2 3.68 -2 2.36 -2 1 C-1.34 0.67 -0.68 0.34 0 0 Z " fill="#208DB9" transform="translate(235,267)"/>
<path d="M0 0 C0.66 0.99 1.32 1.98 2 3 C0.7260411 5.03833424 -0.61061923 7.03852126 -2 9 C-2.66 9 -3.32 9 -4 9 C-2.94124926 5.59687262 -1.99097846 2.98646769 0 0 Z " fill="#1B90B9" transform="translate(242,231)"/>
<path d="M0 0 C4.75 0.75 4.75 0.75 7 3 C3.71303767 3.79953138 2.28976808 4.09658936 -1 3 C-0.67 2.01 -0.34 1.02 0 0 Z " fill="#1D93C1" transform="translate(244,228)"/>
<path d="M0 0 C2.97 0.495 2.97 0.495 6 1 C5.01 1.495 5.01 1.495 4 2 C4 2.66 4 3.32 4 4 C2.68 4 1.36 4 0 4 C0 2.68 0 1.36 0 0 Z " fill="#1296CF" transform="translate(180,219)"/>
<path d="M0 0 C0.66 0 1.32 0 2 0 C1.45773019 3.79588866 -0.20127563 5.47211993 -3 8 C-2.45276317 4.62537285 -1.9451 2.91765 0 0 Z " fill="#2997C5" transform="translate(141,123)"/>
</svg>
