<?xml version="1.0" encoding="UTF-8"?>
<svg version="1.1" xmlns="http://www.w3.org/2000/svg" width="48" height="48">
<path d="M0,0 L3,0 L3,1 L5,1 L5,2 L6,2 L6,3 L7,3 L7,9 L6,9 L6,11 L7,11 L7,12 L8,12 L8,13 L9,13 L9,15 L10,15 L10,16 L11,16 L11,17 L12,17 L12,18 L16,18 L16,19 L18,19 L18,20 L19,20 L19,25 L18,25 L18,26 L17,26 L17,27 L12,27 L12,28 L13,28 L13,29 L12,29 L12,31 L11,31 L11,33 L10,33 L10,34 L9,34 L9,36 L10,36 L10,39 L9,39 L9,40 L4,40 L4,39 L3,39 L3,35 L4,35 L4,34 L7,34 L7,32 L8,32 L8,30 L6,30 L6,31 L5,31 L5,32 L4,32 L4,33 L2,33 L2,34 L1,34 L1,35 L0,35 L0,36 L-1,36 L-1,38 L-2,38 L-2,39 L-3,39 L-3,40 L-7,40 L-7,39 L-8,39 L-8,35 L-7,35 L-7,34 L-3,34 L-3,33 L-1,33 L-1,32 L0,32 L0,31 L1,31 L1,30 L3,30 L3,29 L4,29 L4,28 L5,28 L5,27 L7,27 L7,26 L8,26 L8,25 L9,25 L9,21 L10,21 L10,19 L9,19 L9,18 L8,18 L8,17 L7,17 L7,15 L6,15 L6,14 L5,14 L5,13 L4,13 L4,12 L2,12 L2,13 L3,13 L3,19 L5,19 L5,20 L6,20 L6,25 L5,25 L5,26 L4,26 L4,27 L-2,27 L-2,26 L-3,26 L-3,25 L-4,25 L-4,21 L-3,21 L-3,19 L-1,19 L-1,18 L0,18 L0,12 L-1,12 L-1,11 L-2,11 L-2,13 L-3,13 L-3,14 L-4,14 L-4,16 L-5,16 L-5,17 L-6,17 L-6,18 L-7,18 L-7,19 L-8,19 L-8,21 L-7,21 L-7,25 L-8,25 L-8,26 L-9,26 L-9,27 L-15,27 L-15,26 L-16,26 L-16,25 L-17,25 L-17,21 L-16,21 L-16,19 L-14,19 L-14,18 L-10,18 L-10,17 L-9,17 L-9,16 L-8,16 L-8,15 L-7,15 L-7,14 L-6,14 L-6,12 L-5,12 L-5,11 L-3,11 L-3,10 L-4,10 L-4,8 L-5,8 L-5,4 L-4,4 L-4,2 L-2,2 L-2,1 L0,1 Z M4,11 L4,12 L5,12 L5,11 Z M10,26 L10,27 L11,27 L11,26 Z M8,29 L8,30 L9,30 L9,29 Z " fill="#0896C9" transform="translate(23,4)"/>
<path d="M0,0 L3,0 L3,3 L4,3 L4,6 L6,6 L6,7 L7,7 L7,11 L6,11 L6,12 L1,12 L1,10 L0,10 L0,8 L1,8 L1,3 L0,3 Z " fill="#0995C8" transform="translate(37,32)"/>
<path d="M0,0 L3,0 L3,2 L2,2 L2,5 L1,5 L1,7 L2,7 L2,11 L1,11 L1,12 L-3,12 L-3,11 L-4,11 L-4,7 L-3,7 L-3,6 L-1,6 L-1,2 L0,2 Z " fill="#0797CA" transform="translate(8,32)"/>
</svg>
