<?xml version="1.0" encoding="UTF-8"?>
<svg version="1.1" xmlns="http://www.w3.org/2000/svg" width="200" height="200">
<path d="M0 0 C9.9389734 7.89982232 19.05943961 17.42820781 27.30078125 27.0625 C30.16531452 30.3823615 33.12229618 33.09431427 36.5625 35.8125 C37.52027344 36.575625 38.47804688 37.33875 39.46484375 38.125 C40.17769531 38.681875 40.89054687 39.23875 41.625 39.8125 C46.32235429 38.37884291 49.20180618 35.64328357 52.5546875 32.2109375 C53.10810822 31.65564362 53.66152893 31.10034973 54.23171997 30.52822876 C55.40003324 29.35320897 56.56475103 28.17460465 57.72607422 26.99267578 C59.48037074 25.20747506 61.24486995 23.43292579 63.01171875 21.66015625 C68.25030699 16.38488231 73.39823876 11.08279733 78.22900391 5.42675781 C80.17427765 3.17734369 82.25605584 1.08513123 84.375 -1 C85.11234375 -1.72832031 85.8496875 -2.45664062 86.609375 -3.20703125 C87.60710937 -4.18736328 87.60710937 -4.18736328 88.625 -5.1875 C89.62610681 -6.18639197 90.62658102 -7.18592147 91.625 -8.1875 C92.615 -7.8575 93.605 -7.5275 94.625 -7.1875 C94.65282129 -5.27092203 94.67175234 -3.3542152 94.6875 -1.4375 C94.69910156 -0.37015625 94.71070313 0.6971875 94.72265625 1.796875 C94.69773452 4.99730177 94.41897395 8.13941692 94.11132812 11.32446289 C93.59058032 17.45815316 93.58223147 23.48785518 93.74609375 29.63671875 C93.78157822 31.27745613 93.78157822 31.27745613 93.81777954 32.95133972 C93.86831829 35.27383035 93.92147015 37.59626542 93.9770813 39.91864014 C94.12098199 45.95198109 94.24453615 51.98572611 94.3671875 58.01953125 C94.40378227 59.80073364 94.40378227 59.80073364 94.44111633 61.61791992 C94.63909834 71.64171903 94.71540542 81.66193441 94.6875 91.6875 C94.6856369 92.38217377 94.6837738 93.07684753 94.68185425 93.79257202 C94.67040349 97.46594173 94.65183342 101.13921148 94.625 104.8125 C91.14910444 106.39255781 88.60495138 107.04174692 84.796875 106.82421875 C83.91515625 106.77716797 83.0334375 106.73011719 82.125 106.68164062 C81.2175 106.62169922 80.31 106.56175781 79.375 106.5 C78.45203125 106.45166016 77.5290625 106.40332031 76.578125 106.35351562 C69.77057719 105.95807719 69.77057719 105.95807719 68.625 104.8125 C66.76324998 87.98779614 67.04104739 70.64199647 68.625 53.8125 C66.8696735 55.20162907 65.12096093 56.59911773 63.375 58 C62.40046875 58.77730469 61.4259375 59.55460937 60.421875 60.35546875 C57.78924517 62.668212 55.71527918 65.01053053 53.625 67.8125 C54.718125 68.01875 55.81125 68.225 56.9375 68.4375 C60.625 69.8125 60.625 69.8125 62.5 72.6875 C63.625 75.8125 63.625 75.8125 64.1875 78.125 C64.331875 78.681875 64.47625 79.23875 64.625 79.8125 C65.285 80.1425 65.945 80.4725 66.625 80.8125 C66.8125 84.1875 66.8125 84.1875 66.625 87.8125 C65.635 88.4725 64.645 89.1325 63.625 89.8125 C63.01657234 91.67434801 63.01657234 91.67434801 62.75 93.75 C62.05684059 96.90645318 61.86134409 97.6080943 59.3125 99.8125 C56.50939139 100.85551716 54.58706794 101.14161866 51.625 100.8125 C50.625 99.8125 50.625 99.8125 50.4375 97.375 C50.625 94.8125 50.625 94.8125 52.625 92.8125 C53.8574794 86.72961778 53.9717096 81.61025313 51.625 75.8125 C51.5 72.9375 51.5 72.9375 51.625 70.8125 C48.10089515 72.80245238 48.10089515 72.80245238 45.0625 75.4375 C43.20917046 77.21025 42.18812251 77.61498339 39.625 77.8125 C37.51171875 76.22265625 37.51171875 76.22265625 35.3125 73.875 C34.52101563 73.0396875 33.72953125 72.204375 32.9140625 71.34375 C30.40565835 68.56995156 27.94683048 65.76000055 25.51171875 62.921875 C21.7386719 58.70356175 17.65443259 54.7836289 13.625 50.8125 C11.95833333 49.14583333 10.29166667 47.47916667 8.625 45.8125 C7.63886719 44.84376953 7.63886719 44.84376953 6.6328125 43.85546875 C3.27358725 40.54502893 0.10693795 37.21843763 -2.875 33.5625 C-7.95517533 27.68746731 -14.75699669 24.88924958 -22.375 23.8125 C-28.23069011 23.41662236 -32.96096257 23.35423435 -38.375 25.8125 C-38.375 26.4725 -38.375 27.1325 -38.375 27.8125 C-37.6951001 27.94301758 -37.0152002 28.07353516 -36.31469727 28.20800781 C-33.18669138 28.8150573 -30.06219772 29.43865492 -26.9375 30.0625 C-25.86822266 30.26746094 -24.79894531 30.47242188 -23.69726562 30.68359375 C-17.13832749 32.00741613 -11.33172937 33.75560307 -5.375 36.8125 C-4.49328125 37.25851563 -3.6115625 37.70453125 -2.703125 38.1640625 C4.01192531 42.27892416 7.18855541 47.51503873 9.23828125 55.07421875 C11.00475299 67.58226613 10.99166318 81.18998281 3.37109375 91.6796875 C-4.15348392 100.87078238 -13.74003123 105.42624867 -25.5625 106.75 C-39.82620351 107.30790235 -53.01762239 100.75083227 -64.08984375 92.0390625 C-66.49948285 89.73928536 -66.67691379 87.52149653 -66.875 84.3125 C-66.875 75.60570594 -62.76309168 67.66906975 -59.375 59.8125 C-55.86845808 60.57435692 -54.18510661 61.6594863 -51.5 64.0625 C-42.80953379 70.97213297 -32.97404721 73.38930934 -22.01953125 73.28125 C-19.09947869 72.76366314 -18.16181588 72.12123805 -16.375 69.8125 C-21.0670957 66.34015245 -25.94997529 65.7926446 -31.5625 64.875 C-42.72640423 62.87474093 -52.71376774 60.87150905 -60.375 51.8125 C-66.5463247 41.22286457 -67.38306879 27.1049912 -64.3125 15.3125 C-61.36738553 7.30676629 -56.10023145 -0.27700061 -48.375 -4.1875 C-32.38111381 -10.7229328 -14.51825831 -9.73079583 0 0 Z " fill="#03F088" transform="translate(86.375,51.1875)"/>
<path d="M0 0 C2.0279449 1.64958203 2.92515119 2.50746105 3.32470703 5.13671875 C3.30263184 5.97847656 3.28055664 6.82023437 3.2578125 7.6875 C3.24298828 8.67379395 3.22816406 9.66008789 3.21289062 10.67626953 C3.18388672 11.77310059 3.15488281 12.86993164 3.125 14 C3.09111477 16.45566246 3.0628655 18.91140662 3.0390625 21.3671875 C3.03203308 22.03652313 3.02500366 22.70585876 3.01776123 23.39547729 C2.95158406 31.71996319 3.20116037 40.03701361 3.42550659 48.35775757 C3.942886 67.57709907 4.12999783 86.77432023 4 106 C0.52410444 107.58005781 -2.02004862 108.22924692 -5.828125 108.01171875 C-6.70984375 107.96466797 -7.5915625 107.91761719 -8.5 107.86914062 C-9.4075 107.80919922 -10.315 107.74925781 -11.25 107.6875 C-12.17296875 107.63916016 -13.0959375 107.59082031 -14.046875 107.54101562 C-20.85442281 107.14557719 -20.85442281 107.14557719 -22 106 C-23.86175002 89.17529614 -23.58395261 71.82949647 -22 55 C-23.7553265 56.38912907 -25.50403907 57.78661773 -27.25 59.1875 C-28.22453125 59.96480469 -29.1990625 60.74210937 -30.203125 61.54296875 C-32.83575483 63.855712 -34.90972082 66.19803053 -37 69 C-35.906875 69.20625 -34.81375 69.4125 -33.6875 69.625 C-30 71 -30 71 -28.125 73.875 C-27 77 -27 77 -26.4375 79.3125 C-26.293125 79.869375 -26.14875 80.42625 -26 81 C-25.34 81.33 -24.68 81.66 -24 82 C-23.8125 85.375 -23.8125 85.375 -24 89 C-24.99 89.66 -25.98 90.32 -27 91 C-27.60842766 92.86184801 -27.60842766 92.86184801 -27.875 94.9375 C-28.56815941 98.09395318 -28.76365591 98.7955943 -31.3125 101 C-34.11560861 102.04301716 -36.03793206 102.32911866 -39 102 C-40 101 -40 101 -40.1875 98.5625 C-40 96 -40 96 -38 94 C-36.7675206 87.91711778 -36.6532904 82.79775313 -39 77 C-39.125 74.125 -39.125 74.125 -39 72 C-42.52410485 73.98995238 -42.52410485 73.98995238 -45.5625 76.625 C-47.41582954 78.39775 -48.43687749 78.80248339 -51 79 C-53.11328125 77.41015625 -53.11328125 77.41015625 -55.3125 75.0625 C-56.10398437 74.2271875 -56.89546875 73.391875 -57.7109375 72.53125 C-60.21934165 69.75745156 -62.67816952 66.94750055 -65.11328125 64.109375 C-68.8863281 59.89106175 -72.97056741 55.9711289 -77 52 C-78.66666667 50.33333333 -80.33333333 48.66666667 -82 47 C-82.65742187 46.35417969 -83.31484375 45.70835938 -83.9921875 45.04296875 C-89.69798385 39.42003666 -95.44488296 33.6206506 -100 27 C-100 26.34 -100 25.68 -100 25 C-100.66 24.896875 -101.32 24.79375 -102 24.6875 C-105 24 -105 24 -108.3125 22.4375 C-114.77728453 19.86158972 -122.17163293 20.77625496 -129 21 C-127.70315019 18.40630037 -126.67558318 18.05178098 -124 17 C-117.32256594 16.29492932 -111.40795095 17.23228939 -105 19 C-102.45632332 19.75021244 -102.45632332 19.75021244 -100 19 C-96.8601415 16.42491262 -93.82976111 13.65952222 -92 10 C-87.6896024 10.49389972 -85.8929902 11.69037773 -83 14.875 C-80.98670794 17.07500867 -79.34919555 18.80456964 -76.73901367 20.26538086 C-73.4192035 22.3678188 -70.82930731 24.95812437 -68.11328125 27.76171875 C-67.57019821 28.31237503 -67.02711517 28.86303131 -66.46757507 29.43037415 C-64.74428048 31.17797827 -63.02764654 32.93190075 -61.3125 34.6875 C-59.04344482 37.00958081 -56.76796447 39.32507666 -54.48828125 41.63671875 C-53.70702629 42.44286873 -53.70702629 42.44286873 -52.9099884 43.26530457 C-51.64420346 44.54835889 -50.32637361 45.77968325 -49 47 C-46.72201148 47.22554176 -46.72201148 47.22554176 -44.6875 44.875 C-42.90347494 42.96650808 -41.17247324 41.00696788 -39.5 39 C-37.12885733 36.15462879 -34.65020627 33.58395112 -32 31 C-30.6696875 29.6078125 -30.6696875 29.6078125 -29.3125 28.1875 C-27 26 -27 26 -25 26 C-24.7215625 25.1646875 -24.7215625 25.1646875 -24.4375 24.3125 C-22.72132996 21.55170472 -20.57518039 20.2657921 -17.91796875 18.46875 C-15.17579074 16.36883364 -13.12057961 13.84153466 -10.91015625 11.203125 C-7.49116338 7.25974672 -3.72642968 3.65038009 0 0 Z " fill="#F70301" transform="translate(177,50)"/>
<path d="M0 0 C9.9389734 7.89982232 19.05943961 17.42820781 27.30078125 27.0625 C30.16531452 30.3823615 33.12229618 33.09431427 36.5625 35.8125 C37.52027344 36.575625 38.47804688 37.33875 39.46484375 38.125 C40.17769531 38.681875 40.89054687 39.23875 41.625 39.8125 C46.32235429 38.37884291 49.20180618 35.64328357 52.5546875 32.2109375 C53.10810822 31.65564362 53.66152893 31.10034973 54.23171997 30.52822876 C55.40003324 29.35320897 56.56475103 28.17460465 57.72607422 26.99267578 C59.48037074 25.20747506 61.24486995 23.43292579 63.01171875 21.66015625 C68.25030699 16.38488231 73.39823876 11.08279733 78.22900391 5.42675781 C80.17427765 3.17734369 82.25605584 1.08513123 84.375 -1 C85.11234375 -1.72832031 85.8496875 -2.45664062 86.609375 -3.20703125 C87.60710937 -4.18736328 87.60710937 -4.18736328 88.625 -5.1875 C89.62610681 -6.18639197 90.62658102 -7.18592147 91.625 -8.1875 C92.615 -7.8575 93.605 -7.5275 94.625 -7.1875 C94.625 -2.8975 94.625 1.3925 94.625 5.8125 C93.635 3.8325 93.635 3.8325 92.625 1.8125 C91.635 0.8225 91.635 0.8225 90.625 -0.1875 C83.51702131 6.7813213 83.51702131 6.7813213 76.875 14.1875 C74.07310831 17.47955715 71.26945503 19.52412126 67.625 21.8125 C66.635 23.2975 66.635 23.2975 65.625 24.8125 C64.965 24.8125 64.305 24.8125 63.625 24.8125 C63.398125 25.369375 63.17125 25.92625 62.9375 26.5 C61.25122733 29.47105185 59.094646 31.45772125 56.625 33.8125 C55.820625 34.6375 55.01625 35.4625 54.1875 36.3125 C52.30840671 38.14576175 50.46726407 39.79201165 48.4375 41.4375 C45.50619654 43.68972335 45.50619654 43.68972335 43.625 46.8125 C39.57545442 45.20578554 36.9126475 42.32174178 33.94140625 39.25390625 C33.40402328 38.70895004 32.86664032 38.16399384 32.31297302 37.6025238 C30.02220825 35.27917602 27.74345174 32.94417932 25.46362305 30.61010742 C23.7937053 28.90390269 22.11773085 27.20381301 20.44140625 25.50390625 C19.93291641 24.97881973 19.42442657 24.45373322 18.90052795 23.91273499 C16.01835329 20.99148039 13.20309319 18.80657382 9.625 16.8125 C7.78114336 15.05681114 6.08767603 13.2150599 4.37109375 11.3359375 C2.44858407 9.65858006 1.11567366 9.21580383 -1.375 8.8125 C-1.684375 9.616875 -1.684375 9.616875 -2 10.4375 C-3.95295169 13.81078019 -6.09821065 16.6379716 -9.375 18.8125 C-12.875 18.75 -12.875 18.75 -16.375 17.8125 C-23.14879312 16.42695141 -31.2035963 15.14732362 -37.375 18.8125 C-36.44300781 18.75449219 -35.51101562 18.69648437 -34.55078125 18.63671875 C-25.41758283 18.31350141 -17.48820089 19.01776231 -9.375 23.8125 C-8.01953125 25.984375 -8.01953125 25.984375 -7.375 27.8125 C-8.03886719 27.60753906 -8.70273438 27.40257812 -9.38671875 27.19140625 C-10.26972656 26.92199219 -11.15273437 26.65257812 -12.0625 26.375 C-12.93261719 26.10816406 -13.80273438 25.84132812 -14.69921875 25.56640625 C-19.15018691 24.31233785 -23.2449438 23.65751444 -27.875 23.625 C-28.7928125 23.61082031 -29.710625 23.59664062 -30.65625 23.58203125 C-33.57052633 23.82907479 -35.72858797 24.59956115 -38.375 25.8125 C-38.375 26.4725 -38.375 27.1325 -38.375 27.8125 C-26.495 30.2875 -26.495 30.2875 -14.375 32.8125 C-14.375 33.1425 -14.375 33.4725 -14.375 33.8125 C-37.10601952 32.08148048 -37.10601952 32.08148048 -40.375 28.8125 C-41.078125 26.75390625 -41.078125 26.75390625 -41.625 24.375 C-41.91117188 23.20130859 -41.91117188 23.20130859 -42.203125 22.00390625 C-42.375 19.8125 -42.375 19.8125 -40.375 16.8125 C-35.82458179 14.18859985 -31.09162137 14.55012322 -26 14.625 C-25.175 14.62564453 -24.35 14.62628906 -23.5 14.62695312 C-19.7083833 14.6540361 -16.24059908 14.83546297 -12.48828125 15.4765625 C-9.48258859 16.07300733 -9.48258859 16.07300733 -7.37890625 14.87890625 C-4.41948505 11.79116326 -3.00780848 9.81805598 -3 5.4375 C-3.12375 4.24125 -3.2475 3.045 -3.375 1.8125 C-4.365 1.4825 -5.355 1.1525 -6.375 0.8125 C-6.375 0.1525 -6.375 -0.5075 -6.375 -1.1875 C-8.355 -1.5175 -10.335 -1.8475 -12.375 -2.1875 C-12.375 -2.8475 -12.375 -3.5075 -12.375 -4.1875 C-17.7265141 -5.07941902 -23.01701974 -5.32504166 -28.4375 -5.375 C-29.10974609 -5.38789062 -29.78199219 -5.40078125 -30.47460938 -5.4140625 C-35.10396818 -5.42311305 -38.98447269 -4.60258417 -43.375 -3.1875 C-45.03746041 -2.83378502 -46.70274271 -2.49154678 -48.375 -2.1875 C-48.375 -1.5275 -48.375 -0.8675 -48.375 -0.1875 C-49.32375 0.06 -50.2725 0.3075 -51.25 0.5625 C-54.87734943 2.01343977 -54.88983062 2.4344236 -56.375 5.8125 C-56.79676514 6.51681152 -57.21853027 7.22112305 -57.65307617 7.94677734 C-61.60476844 14.87332274 -61.99804049 20.5736594 -61.6875 28.4375 C-61.66494141 29.53707031 -61.64238281 30.63664062 -61.61914062 31.76953125 C-61.56082612 34.45199836 -61.47905184 37.13148433 -61.375 39.8125 C-60.75012695 39.945354 -60.12525391 40.07820801 -59.48144531 40.21508789 C-56.80101666 40.97528828 -55.8803177 42.11790956 -54.125 44.25 C-53.60421875 44.86746094 -53.0834375 45.48492187 -52.546875 46.12109375 C-51.375 47.8125 -51.375 47.8125 -51.375 49.8125 C-50.055 49.8125 -48.735 49.8125 -47.375 49.8125 C-47.375 50.4725 -47.375 51.1325 -47.375 51.8125 C-45.8590625 51.750625 -45.8590625 51.750625 -44.3125 51.6875 C-40.26320335 51.8160491 -37.23766117 52.634061 -33.375 53.8125 C-31.81342724 54.06822794 -30.25083268 54.31776102 -28.6875 54.5625 C-22.52636407 55.76629117 -16.46165551 58.10016327 -11.375 61.8125 C-9.82224029 66.25999728 -10.33436408 69.57425616 -12.375 73.8125 C-19.403254 78.27364118 -29.00302015 77.55103937 -36.875 76.1875 C-41.60003632 75.01473919 -45.61738685 72.69414511 -49.796875 70.25 C-54.33533109 67.67606429 -54.33533109 67.67606429 -59.375 66.8125 C-59.375 67.8025 -59.375 68.7925 -59.375 69.8125 C-60.035 69.8125 -60.695 69.8125 -61.375 69.8125 C-61.43558594 70.42738281 -61.49617188 71.04226562 -61.55859375 71.67578125 C-61.64238281 72.48402344 -61.72617187 73.29226562 -61.8125 74.125 C-61.89371094 74.92550781 -61.97492187 75.72601563 -62.05859375 76.55078125 C-62.375 78.8125 -62.375 78.8125 -63.375 81.8125 C-62.385 81.8125 -61.395 81.8125 -60.375 81.8125 C-59.32855934 83.45040712 -58.3351817 85.12258021 -57.375 86.8125 C-52.08813339 92.96626621 -43.81275102 96.09087244 -35.88037109 97.14355469 C-26.32427613 97.85408524 -16.81165616 97.85709853 -8.375 92.8125 C-7.323125 92.19375 -6.27125 91.575 -5.1875 90.9375 C-2.28941894 88.74783876 0.42392935 86.42788861 3.109375 83.984375 C4.625 82.8125 4.625 82.8125 6.625 82.8125 C7.285 74.5625 7.945 66.3125 8.625 57.8125 C8.955 57.8125 9.285 57.8125 9.625 57.8125 C10.13654437 84.15703509 10.13654437 84.15703509 -0.08984375 95.7578125 C-7.70656498 103.19740068 -18.06758576 106.4568482 -28.55859375 106.8671875 C-41.47889206 106.61630792 -56.00501526 99.75528179 -65.375 90.8125 C-67.7282802 86.10593961 -67.176705 80.45484269 -65.68359375 75.53369141 C-63.7907883 70.20646262 -61.61315407 65.00250523 -59.375 59.8125 C-55.86845808 60.57435692 -54.18510661 61.6594863 -51.5 64.0625 C-42.80953379 70.97213297 -32.97404721 73.38930934 -22.01953125 73.28125 C-19.09947869 72.76366314 -18.16181588 72.12123805 -16.375 69.8125 C-21.0670957 66.34015245 -25.94997529 65.7926446 -31.5625 64.875 C-42.72640423 62.87474093 -52.71376774 60.87150905 -60.375 51.8125 C-66.5463247 41.22286457 -67.38306879 27.1049912 -64.3125 15.3125 C-61.36738553 7.30676629 -56.10023145 -0.27700061 -48.375 -4.1875 C-32.38111381 -10.7229328 -14.51825831 -9.73079583 0 0 Z " fill="#7BAA7F" transform="translate(86.375,51.1875)"/>
<path d="M0 0 C9.9389734 7.89982232 19.05943961 17.42820781 27.30078125 27.0625 C30.16531452 30.3823615 33.12229618 33.09431427 36.5625 35.8125 C37.52027344 36.575625 38.47804688 37.33875 39.46484375 38.125 C40.17769531 38.681875 40.89054687 39.23875 41.625 39.8125 C46.32235429 38.37884291 49.20180618 35.64328357 52.5546875 32.2109375 C53.10810822 31.65564362 53.66152893 31.10034973 54.23171997 30.52822876 C55.40003324 29.35320897 56.56475103 28.17460465 57.72607422 26.99267578 C59.48037074 25.20747506 61.24486995 23.43292579 63.01171875 21.66015625 C68.25030699 16.38488231 73.39823876 11.08279733 78.22900391 5.42675781 C80.17427765 3.17734369 82.25605584 1.08513123 84.375 -1 C85.11234375 -1.72832031 85.8496875 -2.45664062 86.609375 -3.20703125 C87.60710937 -4.18736328 87.60710937 -4.18736328 88.625 -5.1875 C89.62610681 -6.18639197 90.62658102 -7.18592147 91.625 -8.1875 C92.615 -7.8575 93.605 -7.5275 94.625 -7.1875 C94.625 -2.8975 94.625 1.3925 94.625 5.8125 C93.635 3.8325 93.635 3.8325 92.625 1.8125 C91.635 0.8225 91.635 0.8225 90.625 -0.1875 C83.51702131 6.7813213 83.51702131 6.7813213 76.875 14.1875 C74.07310831 17.47955715 71.26945503 19.52412126 67.625 21.8125 C66.635 23.2975 66.635 23.2975 65.625 24.8125 C64.965 24.8125 64.305 24.8125 63.625 24.8125 C63.398125 25.369375 63.17125 25.92625 62.9375 26.5 C61.25122733 29.47105185 59.094646 31.45772125 56.625 33.8125 C55.820625 34.6375 55.01625 35.4625 54.1875 36.3125 C52.30840671 38.14576175 50.46726407 39.79201165 48.4375 41.4375 C45.50619654 43.68972335 45.50619654 43.68972335 43.625 46.8125 C39.57545442 45.20578554 36.9126475 42.32174178 33.94140625 39.25390625 C33.40402328 38.70895004 32.86664032 38.16399384 32.31297302 37.6025238 C30.02220825 35.27917602 27.74345174 32.94417932 25.46362305 30.61010742 C23.7937053 28.90390269 22.11773085 27.20381301 20.44140625 25.50390625 C19.93291641 24.97881973 19.42442657 24.45373322 18.90052795 23.91273499 C16.01835329 20.99148039 13.20309319 18.80657382 9.625 16.8125 C7.78114336 15.05681114 6.08767603 13.2150599 4.37109375 11.3359375 C2.44858407 9.65858006 1.11567366 9.21580383 -1.375 8.8125 C-1.58125 9.34875 -1.7875 9.885 -2 10.4375 C-3.95295169 13.81078019 -6.09821065 16.6379716 -9.375 18.8125 C-12.875 18.75 -12.875 18.75 -16.375 17.8125 C-23.14879312 16.42695141 -31.2035963 15.14732362 -37.375 18.8125 C-36.44300781 18.75449219 -35.51101562 18.69648437 -34.55078125 18.63671875 C-25.41758283 18.31350141 -17.48820089 19.01776231 -9.375 23.8125 C-8.01953125 25.984375 -8.01953125 25.984375 -7.375 27.8125 C-8.03886719 27.60753906 -8.70273438 27.40257812 -9.38671875 27.19140625 C-10.26972656 26.92199219 -11.15273437 26.65257812 -12.0625 26.375 C-12.93261719 26.10816406 -13.80273438 25.84132812 -14.69921875 25.56640625 C-19.15018691 24.31233785 -23.2449438 23.65751444 -27.875 23.625 C-28.7928125 23.61082031 -29.710625 23.59664062 -30.65625 23.58203125 C-33.57052633 23.82907479 -35.72858797 24.59956115 -38.375 25.8125 C-38.375 26.4725 -38.375 27.1325 -38.375 27.8125 C-26.495 30.2875 -26.495 30.2875 -14.375 32.8125 C-14.375 33.1425 -14.375 33.4725 -14.375 33.8125 C-37.10601952 32.08148048 -37.10601952 32.08148048 -40.375 28.8125 C-41.078125 26.75390625 -41.078125 26.75390625 -41.625 24.375 C-41.91117188 23.20130859 -41.91117188 23.20130859 -42.203125 22.00390625 C-42.375 19.8125 -42.375 19.8125 -40.375 16.8125 C-35.82458179 14.18859985 -31.09162137 14.55012322 -26 14.625 C-25.175 14.62564453 -24.35 14.62628906 -23.5 14.62695312 C-19.7083833 14.6540361 -16.24059908 14.83546297 -12.48828125 15.4765625 C-9.48258859 16.07300733 -9.48258859 16.07300733 -7.37890625 14.87890625 C-4.41948505 11.79116326 -3.00780848 9.81805598 -3 5.4375 C-3.12375 4.24125 -3.2475 3.045 -3.375 1.8125 C-4.365 1.4825 -5.355 1.1525 -6.375 0.8125 C-6.375 0.1525 -6.375 -0.5075 -6.375 -1.1875 C-8.355 -1.5175 -10.335 -1.8475 -12.375 -2.1875 C-12.375 -2.8475 -12.375 -3.5075 -12.375 -4.1875 C-17.7265141 -5.07941902 -23.01701974 -5.32504166 -28.4375 -5.375 C-29.10974609 -5.38789062 -29.78199219 -5.40078125 -30.47460938 -5.4140625 C-35.10396818 -5.42311305 -38.98447269 -4.60258417 -43.375 -3.1875 C-45.03746041 -2.83378502 -46.70274271 -2.49154678 -48.375 -2.1875 C-48.375 -1.5275 -48.375 -0.8675 -48.375 -0.1875 C-49.32375 0.06 -50.2725 0.3075 -51.25 0.5625 C-54.87955937 2.01432375 -54.9082045 2.41571043 -56.375 5.8125 C-56.78878906 6.616875 -57.20257813 7.42125 -57.62890625 8.25 C-58.06074219 9.095625 -58.49257813 9.94125 -58.9375 10.8125 C-59.37191406 11.658125 -59.80632813 12.50375 -60.25390625 13.375 C-62.08063327 17.34669916 -62.52205842 20.87971656 -62.69140625 25.234375 C-62.73330078 26.25917969 -62.77519531 27.28398438 -62.81835938 28.33984375 C-62.87733398 29.93505859 -62.87733398 29.93505859 -62.9375 31.5625 C-62.98068359 32.64144531 -63.02386719 33.72039062 -63.06835938 34.83203125 C-63.17428989 37.49206428 -63.27636421 40.15218812 -63.375 42.8125 C-67.45561495 35.52851601 -66.37587656 23.28579461 -64.3125 15.3125 C-61.36738553 7.30676629 -56.10023145 -0.27700061 -48.375 -4.1875 C-32.38111381 -10.7229328 -14.51825831 -9.73079583 0 0 Z " fill="#71B47F" transform="translate(86.375,51.1875)"/>
<path d="M0 0 C0.66 0 1.32 0 2 0 C2 19.14 2 38.28 2 58 C12.395 57.505 12.395 57.505 23 57 C23.66 55.68 24.32 54.36 25 53 C25 55.31 25 57.62 25 60 C20.0330001 62.72350204 15.20500432 62.04780923 9.75 61.6875 C8.82703125 61.63916016 7.9040625 61.59082031 6.953125 61.54101562 C0.14557719 61.14557719 0.14557719 61.14557719 -1 60 C-2.86175002 43.17529614 -2.58395261 25.82949647 -1 9 C-2.7553265 10.38912907 -4.50403907 11.78661773 -6.25 13.1875 C-7.71179688 14.35345703 -7.71179688 14.35345703 -9.203125 15.54296875 C-11.83575483 17.855712 -13.90972082 20.19803053 -16 23 C-14.3603125 23.309375 -14.3603125 23.309375 -12.6875 23.625 C-9 25 -9 25 -7.125 27.875 C-6 31 -6 31 -5.4375 33.3125 C-5.293125 33.869375 -5.14875 34.42625 -5 35 C-4.01 35.495 -4.01 35.495 -3 36 C-2.8125 39.375 -2.8125 39.375 -3 43 C-3.99 43.66 -4.98 44.32 -6 45 C-6.60842766 46.86184801 -6.60842766 46.86184801 -6.875 48.9375 C-7.56815941 52.09395318 -7.76365591 52.7955943 -10.3125 55 C-13.11560861 56.04301716 -15.03793206 56.32911866 -18 56 C-19 55 -19 55 -19.1875 52.5625 C-19 50 -19 50 -17 48 C-15.7675206 41.91711778 -15.6532904 36.79775313 -18 31 C-18.125 28.125 -18.125 28.125 -18 26 C-21.52410485 27.98995238 -21.52410485 27.98995238 -24.5625 30.625 C-26.41723473 32.39909409 -27.43452066 32.80265544 -30 33 C-36.026869 28.54011694 -40.74679939 22.12127303 -45 16 C-42.09217167 17.31484411 -39.99358442 18.73375311 -37.75 21 C-36.96882813 21.7734375 -36.96882813 21.7734375 -36.171875 22.5625 C-35 24 -35 24 -35 26 C-34.34 26 -33.68 26 -33 26 C-31.97895449 26.97850195 -30.9793879 27.97980427 -30 29 C-29.34 29.33 -28.68 29.66 -28 30 C-27.75636719 29.41734375 -27.51273438 28.8346875 -27.26171875 28.234375 C-25.78003229 25.61045966 -24.12399363 24.17558161 -21.8125 22.25 C-17.93727777 18.92480932 -14.62931779 15.42611171 -11.41015625 11.46875 C-10.94480469 10.9840625 -10.47945312 10.499375 -10 10 C-9.34 10 -8.68 10 -8 10 C-7.7525 9.4225 -7.505 8.845 -7.25 8.25 C-5.81700012 5.67060021 -4.21575324 3.93878408 -2 2 C-1.34 2 -0.68 2 0 2 C0 1.34 0 0.68 0 0 Z " fill="#73AF7A" transform="translate(156,96)"/>
<path d="M0 0 C0.33 0 0.66 0 1 0 C1.33 6.6 1.66 13.2 2 20 C3.32 20.33 4.64 20.66 6 21 C7.703125 22.55859375 7.703125 22.55859375 9.25 24.4375 C9.77078125 25.05496094 10.2915625 25.67242187 10.828125 26.30859375 C12 28 12 28 12 30 C13.32 30 14.64 30 16 30 C16 30.66 16 31.32 16 32 C17.010625 31.95875 18.02125 31.9175 19.0625 31.875 C23.11179665 32.0035491 26.13733883 32.821561 30 34 C31.56157276 34.25572794 33.12416732 34.50526102 34.6875 34.75 C40.84863593 35.95379117 46.91334449 38.28766327 52 42 C53.61585809 46.42604606 52.46092073 49.61723782 51 54 C47.535 54.495 47.535 54.495 44 55 C44 53 44 53 45.5 51.375 C45.995 50.92125 46.49 50.4675 47 50 C42.3079043 46.52765245 37.42502471 45.9801446 31.8125 45.0625 C19.44162973 42.84598641 8.97633846 40.35050031 1.2890625 29.609375 C-0.71076188 24.00986674 -0.31200521 18.51824642 -0.1875 12.625 C-0.17396484 11.41199219 -0.16042969 10.19898437 -0.14648438 8.94921875 C-0.11124582 5.96568794 -0.06197525 2.98307542 0 0 Z " fill="#4CC272" transform="translate(23,71)"/>
<path d="M0 0 C2.0279449 1.64958203 2.92515119 2.50746105 3.32470703 5.13671875 C3.30263184 5.97847656 3.28055664 6.82023437 3.2578125 7.6875 C3.23557617 9.16899536 3.23557617 9.16899536 3.21289062 10.68041992 C3.16938477 12.32361206 3.16938477 12.32361206 3.125 14 C3.09106198 16.4335257 3.06283133 18.86713498 3.0390625 21.30078125 C3.03203308 21.96660721 3.02500366 22.63243317 3.01776123 23.31843567 C2.93400712 33.86559025 3.29385135 44.41049499 3.57330322 54.95288086 C4.51352638 90.5741353 4.51352638 90.5741353 3 103 C2.67 103.33 2.34 103.66 2 104 C-4.93 104 -11.86 104 -19 104 C-19 84.86 -19 65.72 -19 46 C-18.34 46 -17.68 46 -17 46 C-16.67 64.15 -16.34 82.3 -16 101 C-11.05 101.33 -6.1 101.66 -1 102 C-0.67 69.99 -0.34 37.98 0 5 C-4.74406581 7.84643949 -7.54317599 10.08635197 -10 15 C-10.99 15.33 -11.98 15.66 -13 16 C-13.61875 16.78375 -14.2375 17.5675 -14.875 18.375 C-17 21 -17 21 -19.625 22.5625 C-22.22473936 24.13602645 -22.94034725 25.20637001 -24 28 C-24.99 28 -25.98 28 -27 28 C-27 27.34 -27 26.68 -27 26 C-26.34 26 -25.68 26 -25 26 C-24.814375 25.443125 -24.62875 24.88625 -24.4375 24.3125 C-22.72132996 21.55170472 -20.57518039 20.2657921 -17.91796875 18.46875 C-15.17579074 16.36883364 -13.12057961 13.84153466 -10.91015625 11.203125 C-7.49116338 7.25974672 -3.72642968 3.65038009 0 0 Z " fill="#B4220E" transform="translate(177,50)"/>
<path d="M0 0 C6.28453039 -0.48342541 6.28453039 -0.48342541 9.3125 1.5625 C11.39077522 4.5644531 12.07311032 7.49106051 13 11 C13.66 11.33 14.32 11.66 15 12 C15.1875 15.375 15.1875 15.375 15 19 C14.01 19.66 13.02 20.32 12 21 C11.39157234 22.86184801 11.39157234 22.86184801 11.125 24.9375 C10.43184059 28.09395318 10.23634409 28.7955943 7.6875 31 C4.88439139 32.04301716 2.96206794 32.32911866 0 32 C-1 31 -1 31 -1.1875 28.5625 C-1 26 -1 26 1 24 C2.24281502 17.8661065 2.26379703 12.85923936 0 7 C-0.07522969 4.66787973 -0.09325876 2.3314689 0 0 Z " fill="#113E17" transform="translate(138,120)"/>
<path d="M0 0 C1.125 4.75 1.125 4.75 0 7 C-0.66 7 -1.32 7 -2 7 C-2 8.0725 -2 9.145 -2 10.25 C-2 15.16666667 -2 20.08333333 -2 25 C-1.01 25.33 -0.02 25.66 1 26 C1 27.98 1 29.96 1 32 C-6.2 32.48 -6.2 32.48 -9.5 30.5 C-11.68405234 26.85991277 -11.28023018 24.20345267 -11 20 C-11.99 19.67 -12.98 19.34 -14 19 C-14 17.02 -14 15.04 -14 13 C-13.01 12.67 -12.02 12.34 -11 12 C-10.98582031 11.31292969 -10.97164063 10.62585938 -10.95703125 9.91796875 C-10.5670954 2.55134275 -10.5670954 2.55134275 -7.75 -0.1875 C-4.69314388 -1.09066204 -3.01366288 -0.94715119 0 0 Z " fill="#7F392F" transform="translate(112,120)"/>
<path d="M0 0 C0.495 0.99 0.495 0.99 1 2 C-1.84070403 6.69808743 -4.64945788 9.64645712 -9 13 C-9.598125 13.556875 -10.19625 14.11375 -10.8125 14.6875 C-13.76075133 16.4564508 -16.71597977 16.94373436 -20.07421875 17.5703125 C-21.99750921 17.81879233 -21.99750921 17.81879233 -23 19 C-36.94917228 20.53869712 -51.04437841 16.73385217 -62 8 C-64.296875 5.96875 -64.296875 5.96875 -66 4 C-66 3.01 -66 2.02 -66 1 C-63.3605336 2.26486464 -60.97566611 3.66251783 -58.5625 5.3125 C-45.8944229 13.09398794 -32.32490238 15.64650744 -17.70703125 12.23046875 C-15.31095032 11.32061048 -13.19704829 10.31281531 -11 9 C-9.906875 8.360625 -8.81375 7.72125 -7.6875 7.0625 C-4.87374312 4.90310519 -2.43360637 2.57675969 0 0 Z " fill="#A23417" transform="translate(89,135)"/>
<path d="M0 0 C3.22228871 1.28548752 5.06194984 3.4558426 7.453125 5.94140625 C8.34515625 6.86050781 9.2371875 7.77960938 10.15625 8.7265625 C10.83171875 9.43683594 11.5071875 10.14710937 12.203125 10.87890625 C9.203125 10.87890625 9.203125 10.87890625 7.30078125 9.1640625 C5.94649508 7.68500525 4.59232797 6.20583897 3.23828125 4.7265625 C1.1468823 2.82784522 -0.04218329 2.26715139 -2.796875 1.87890625 C-3.003125 2.41515625 -3.209375 2.95140625 -3.421875 3.50390625 C-5.37482669 6.87718644 -7.52008565 9.70437785 -10.796875 11.87890625 C-14.296875 11.81640625 -14.296875 11.81640625 -17.796875 10.87890625 C-24.57066812 9.49335766 -32.6254713 8.21372987 -38.796875 11.87890625 C-37.39888672 11.79189453 -37.39888672 11.79189453 -35.97265625 11.703125 C-26.83945783 11.37990766 -18.91007589 12.08416856 -10.796875 16.87890625 C-9.44140625 19.05078125 -9.44140625 19.05078125 -8.796875 20.87890625 C-9.79267578 20.57146484 -9.79267578 20.57146484 -10.80859375 20.2578125 C-11.69160156 19.98839844 -12.57460937 19.71898438 -13.484375 19.44140625 C-14.35449219 19.17457031 -15.22460938 18.90773438 -16.12109375 18.6328125 C-20.57206191 17.3787441 -24.6668188 16.72392069 -29.296875 16.69140625 C-30.2146875 16.67722656 -31.1325 16.66304687 -32.078125 16.6484375 C-34.99240133 16.89548104 -37.15046297 17.6659674 -39.796875 18.87890625 C-39.796875 19.53890625 -39.796875 20.19890625 -39.796875 20.87890625 C-27.916875 23.35390625 -27.916875 23.35390625 -15.796875 25.87890625 C-15.796875 26.20890625 -15.796875 26.53890625 -15.796875 26.87890625 C-38.52789452 25.14788673 -38.52789452 25.14788673 -41.796875 21.87890625 C-42.5 19.8203125 -42.5 19.8203125 -43.046875 17.44140625 C-43.23765625 16.65894531 -43.4284375 15.87648438 -43.625 15.0703125 C-43.796875 12.87890625 -43.796875 12.87890625 -41.796875 9.87890625 C-37.24645679 7.2550061 -32.51349637 7.61652947 -27.421875 7.69140625 C-26.596875 7.69205078 -25.771875 7.69269531 -24.921875 7.69335938 C-21.10099555 7.72065137 -17.70391264 7.89704754 -13.93359375 8.6328125 C-10.76927789 9.22965289 -10.76927789 9.22965289 -8.65234375 7.26171875 C-8.10191406 6.51664062 -7.55148438 5.7715625 -6.984375 5.00390625 C-3.01984293 -0.20351115 -3.01984293 -0.20351115 0 0 Z " fill="#81BEA1" transform="translate(87.796875,58.12109375)"/>
<path d="M0 0 C2.0279449 1.64958203 2.92515119 2.50746105 3.32470703 5.13671875 C3.30263184 5.97847656 3.28055664 6.82023437 3.2578125 7.6875 C3.24298828 8.67516357 3.22816406 9.66282715 3.21289062 10.68041992 C3.18388672 11.77588135 3.15488281 12.87134277 3.125 14 C3.09106198 16.4335257 3.06283133 18.86713498 3.0390625 21.30078125 C3.03203308 21.96660721 3.02500366 22.63243317 3.01776123 23.31843567 C2.93400712 33.86559025 3.29385135 44.41049499 3.57330322 54.95288086 C4.57989093 93.08842008 4.57989093 93.08842008 3 103 C2.01 103.495 2.01 103.495 1 104 C1 70.67 1 37.34 1 3 C-0.32 3.33 -1.64 3.66 -3 4 C-2.01 2.68 -1.02 1.36 0 0 Z " fill="#BE7C5C" transform="translate(177,50)"/>
<path d="M0 0 C3.2695009 2.34372824 4.94868209 3.55698377 6.2421875 7.4375 C4.2621875 8.0975 2.2821875 8.7575 0.2421875 9.4375 C-0.2528125 6.4675 -0.2528125 6.4675 -0.7578125 3.4375 C-1.7478125 3.1075 -2.7378125 2.7775 -3.7578125 2.4375 C-3.7578125 1.7775 -3.7578125 1.1175 -3.7578125 0.4375 C-5.7378125 0.1075 -7.7178125 -0.2225 -9.7578125 -0.5625 C-9.7578125 -1.2225 -9.7578125 -1.8825 -9.7578125 -2.5625 C-15.1093266 -3.45441902 -20.39983224 -3.70004166 -25.8203125 -3.75 C-26.49255859 -3.76289062 -27.16480469 -3.77578125 -27.85742188 -3.7890625 C-32.48678068 -3.79811305 -36.36728519 -2.97758417 -40.7578125 -1.5625 C-42.42027291 -1.20878502 -44.08555521 -0.86654678 -45.7578125 -0.5625 C-45.7578125 0.0975 -45.7578125 0.7575 -45.7578125 1.4375 C-46.7065625 1.685 -47.6553125 1.9325 -48.6328125 2.1875 C-52.26237187 3.63932375 -52.291017 4.04071043 -53.7578125 7.4375 C-54.17160156 8.241875 -54.58539063 9.04625 -55.01171875 9.875 C-55.44355469 10.720625 -55.87539063 11.56625 -56.3203125 12.4375 C-56.75472656 13.283125 -57.18914063 14.12875 -57.63671875 15 C-59.46344577 18.97169916 -59.90487092 22.50471656 -60.07421875 26.859375 C-60.11611328 27.88417969 -60.15800781 28.90898438 -60.20117188 29.96484375 C-60.26014648 31.56005859 -60.26014648 31.56005859 -60.3203125 33.1875 C-60.36349609 34.26644531 -60.40667969 35.34539062 -60.45117188 36.45703125 C-60.55710239 39.11706428 -60.65917671 41.77718812 -60.7578125 44.4375 C-64.83842745 37.15351601 -63.75868906 24.91079461 -61.6953125 16.9375 C-58.75019803 8.93176629 -53.48304395 1.34799939 -45.7578125 -2.5625 C-30.60634614 -8.75370263 -14.33441981 -8.12148431 0 0 Z " fill="#4DBA8A" transform="translate(83.7578125,49.5625)"/>
<path d="M0 0 C3.51319748 0.59334002 5.24617847 1.89735816 7.875 4.25 C17.22590228 11.70006313 28.29167107 13.78606043 40 14 C40 14.66 40 15.32 40 16 C34.51774595 18.74112703 26.12749675 17.27534991 20.328125 15.8359375 C16.5105713 14.46520513 13.07200718 12.48070595 9.578125 10.4375 C5.03966891 7.86356429 5.03966891 7.86356429 0 7 C0 7.99 0 8.98 0 10 C-0.66 10 -1.32 10 -2 10 C-2.06058594 10.61488281 -2.12117188 11.22976562 -2.18359375 11.86328125 C-2.30927734 13.07564453 -2.30927734 13.07564453 -2.4375 14.3125 C-2.51871094 15.11300781 -2.59992187 15.91351563 -2.68359375 16.73828125 C-3 19 -3 19 -4 22 C-3.01 22 -2.02 22 -1 22 C0.54779543 24.26216255 1.77612283 26.55224566 3 29 C-0.4789459 27.45380182 -3.33449889 25.73954281 -6 23 C-6.61290788 17.17737519 -5.14551444 12.84413802 -3 7.5625 C-2.71382812 6.83095703 -2.42765625 6.09941406 -2.1328125 5.34570312 C-1.43239577 3.55964046 -0.71766189 1.77920344 0 0 Z " fill="#69D5A1" transform="translate(27,111)"/>
<path d="M0 0 C0.44730469 0.40992187 0.89460938 0.81984375 1.35546875 1.2421875 C4.77342048 4.28846431 7.5978434 6.53261447 12 8 C12.99 8.66 13.98 9.32 15 10 C16.90825443 10.45135412 18.83560242 10.82428508 20.76953125 11.1484375 C22.47399414 11.45007813 22.47399414 11.45007813 24.21289062 11.7578125 C26.59995152 12.16709695 28.98797564 12.57080526 31.37695312 12.96875 C42.42003601 14.94139793 42.42003601 14.94139793 47 19 C47.875 21.25 47.875 21.25 48 23 C45.8675374 22.54304373 44.08847957 22.0473361 42.15820312 21.01464844 C39.79566944 19.9039369 37.79833791 19.51273913 35.21875 19.140625 C10.4143572 15.28375824 10.4143572 15.28375824 2.8125 6.875 C1.22748537 4.36083886 0.59881204 2.81865062 0 0 Z " fill="#AF2A14" transform="translate(26,95)"/>
<path d="M0 0 C2.04824091 1.84341682 3.27423652 3.46721777 4.6875 5.875 C10.90995507 14.28372307 20.86960528 16.54722456 30.71142578 18.07763672 C32.28567002 18.31235612 33.86223191 18.53216039 35.44091797 18.73486328 C40.79563434 19.50379916 44.44922492 21.06070628 49 24 C48.505 26.475 48.505 26.475 48 29 C47.01 29 46.02 29 45 29 C45 28.01 45 27.02 45 26 C42.12076942 24.41449164 39.60390097 23.60615747 36.3671875 23.0703125 C35.48313232 22.91715576 34.59907715 22.76399902 33.68823242 22.60620117 C32.75986572 22.44740479 31.83149902 22.2886084 30.875 22.125 C19.46988794 20.03698569 10.05874117 17.90702971 2 9 C-0.0625 5.75 -0.0625 5.75 -1 3 C-0.67 2.01 -0.34 1.02 0 0 Z " fill="#70976C" transform="translate(24,94)"/>
<path d="M0 0 C8.83979788 0.15241031 15.46594255 1.2788458 23 6 C23.928125 6.556875 24.85625 7.11375 25.8125 7.6875 C32.91545254 15.19633554 33.5881532 22.71508104 33.38256836 32.65625 C32.8838149 45.93634215 32.8838149 45.93634215 31 50 C28.25 52.3125 28.25 52.3125 25 54 C22.93756402 55.60048765 20.98293784 57.30033899 19 59 C19.33 57.02 19.66 55.04 20 53 C20.99 53 21.98 53 23 53 C23 52.34 23 51.68 23 51 C23.78375 50.566875 24.5675 50.13375 25.375 49.6875 C28.53402624 47.65669742 28.87135426 46.51190214 30 43 C30.58595807 39.35158182 30.78697098 35.68743095 31 32 C31.05414063 31.19691406 31.10828125 30.39382812 31.1640625 29.56640625 C31.37238424 24.10269513 30.26706357 19.94938135 28 15 C27.67 14.21625 27.34 13.4325 27 12.625 C24.9966296 9.3695231 21.82909448 8.51198216 18.375 7.4375 C14.10352941 6.10352941 14.10352941 6.10352941 13 5 C11.948125 4.87625 10.89625 4.7525 9.8125 4.625 C5.98867875 3.99814406 3.3562293 2.88276278 0 1 C0 0.67 0 0.34 0 0 Z " fill="#34CD87" transform="translate(62,84)"/>
<path d="M0 0 C0.99 0.33 1.98 0.66 3 1 C3 5.29 3 9.58 3 14 C-0.34042553 7.31914894 -0.34042553 7.31914894 1 3 C0.21625 3.825 -0.5675 4.65 -1.375 5.5 C-4 8 -4 8 -6 8 C-6.24958466 8.57490173 -6.49916931 9.14980347 -6.75631714 9.74212646 C-8.17862007 12.32428004 -9.80811799 14.04831851 -11.89892578 16.12597656 C-12.6996048 16.92650452 -13.50028381 17.72703247 -14.32522583 18.55181885 C-15.18985443 19.40612488 -16.05448303 20.26043091 -16.9453125 21.140625 C-17.8303244 22.02280701 -18.7153363 22.90498901 -19.62716675 23.81390381 C-21.97450131 26.15194543 -24.32606785 28.48555874 -26.67980957 30.81713867 C-29.08313927 33.19996526 -31.48077767 35.58850348 -33.87890625 37.9765625 C-38.58071467 42.65631862 -43.28818664 47.33031867 -48 52 C-51.76488042 50.27845212 -54.15063897 48.00765886 -57 45 C-56.67 44.34 -56.34 43.68 -56 43 C-54.02 44.65 -52.04 46.3 -50 48 C-45.30264571 46.56634291 -42.42319382 43.83078357 -39.0703125 40.3984375 C-38.51689178 39.84314362 -37.96347107 39.28784973 -37.39328003 38.71572876 C-36.22496676 37.54070897 -35.06024897 36.36210465 -33.89892578 35.18017578 C-32.14462926 33.39497506 -30.38013005 31.62042579 -28.61328125 29.84765625 C-23.37469301 24.57238231 -18.22676124 19.27029733 -13.39599609 13.61425781 C-11.45072235 11.36484369 -9.36894416 9.27263123 -7.25 7.1875 C-6.14398438 6.09501953 -6.14398438 6.09501953 -5.015625 4.98046875 C-4.35046875 4.32691406 -3.6853125 3.67335937 -3 3 C-1.99889319 2.00110803 -0.99841898 1.00157853 0 0 Z " fill="#99E6C5" transform="translate(178,43)"/>
<path d="M0 0 C0 3.83910226 -1.02085744 6.76140308 -3 10 C-4.68323693 11.64257904 -6.4506778 13.07283228 -8.30078125 14.5234375 C-10.27382897 16.10661897 -10.27382897 16.10661897 -12.125 19.1875 C-14.16182002 22.24273003 -15.81508232 23.28504433 -19 25 C-19.515625 25.53625 -20.03125 26.0725 -20.5625 26.625 C-22.41723473 28.39909409 -23.43452066 28.80265544 -26 29 C-32.026869 24.54011694 -36.74679939 18.12127303 -41 12 C-38.09217167 13.31484411 -35.99358442 14.73375311 -33.75 17 C-32.96882813 17.7734375 -32.96882813 17.7734375 -32.171875 18.5625 C-31 20 -31 20 -31 22 C-30.34 22 -29.68 22 -29 22 C-27.97895449 22.97850195 -26.9793879 23.97980427 -26 25 C-25.34 25.33 -24.68 25.66 -24 26 C-23.75636719 25.41734375 -23.51273438 24.8346875 -23.26171875 24.234375 C-21.78003229 21.61045966 -20.12399363 20.17558161 -17.8125 18.25 C-13.93727777 14.92480932 -10.62931779 11.42611171 -7.41015625 7.46875 C-6.94480469 6.9840625 -6.47945312 6.499375 -6 6 C-5.34 6 -4.68 6 -4 6 C-3.566875 5.071875 -3.566875 5.071875 -3.125 4.125 C-2 2 -2 2 0 0 Z " fill="#8CCEAD" transform="translate(152,100)"/>
<path d="M0 0 C1.2065625 0.0309375 1.2065625 0.0309375 2.4375 0.0625 C2.4375 1.0525 2.4375 2.0425 2.4375 3.0625 C1.7775 3.0625 1.1175 3.0625 0.4375 3.0625 C0.4375 6.0325 0.4375 9.0025 0.4375 12.0625 C-0.2225 12.0625 -0.8825 12.0625 -1.5625 12.0625 C-1.2325 12.76375 -0.9025 13.465 -0.5625 14.1875 C0.52794562 17.32253116 0.59072643 19.76813182 0.4375 23.0625 C1.7575 23.0625 3.0775 23.0625 4.4375 23.0625 C4.4375 25.0425 4.4375 27.0225 4.4375 29.0625 C2.4575 29.0625 0.4775 29.0625 -1.5625 29.0625 C-4.89387213 23.70333615 -5.51975472 18.33536963 -5.5625 12.0625 C-5.2325 11.7325 -4.9025 11.4025 -4.5625 11.0625 C-4.35474439 9.40045513 -4.19531745 7.73220509 -4.0625 6.0625 C-3.58721536 0.08749306 -3.58721536 0.08749306 0 0 Z " fill="#CC150D" transform="translate(107.5625,121.9375)"/>
<path d="M0 0 C0.33 0 0.66 0 1 0 C1.52575708 27.07648955 1.52575708 27.07648955 -8.92578125 38.015625 C-14.14097296 42.83587986 -18.66434476 45.84115927 -25.9375 46.1875 C-26.948125 46.125625 -27.95875 46.06375 -29 46 C-28.67 45.01 -28.34 44.02 -28 43 C-26.25 42.515625 -26.25 42.515625 -24 42.25 C-17.19516246 40.9193243 -12.27403498 37.06120094 -8.171875 31.5390625 C-7.14311146 29.95596521 -6.14592649 28.35159535 -5.19140625 26.72265625 C-4.79824219 26.15417969 -4.40507813 25.58570313 -4 25 C-3.34 25 -2.68 25 -2 25 C-1.34 16.75 -0.68 8.5 0 0 Z " fill="#73AD88" transform="translate(95,109)"/>
<path d="M0 0 C2.375 -0.125 2.375 -0.125 5 0 C7 2 7 2 7.1953125 4.3828125 C7.17210937 5.28773437 7.14890625 6.19265625 7.125 7.125 C7.10695312 8.03507813 7.08890625 8.94515625 7.0703125 9.8828125 C7.04710937 10.58148438 7.02390625 11.28015625 7 12 C7.99 12 8.98 12 10 12 C10 12.99 10 13.98 10 15 C9.01 15.495 9.01 15.495 8 16 C7.30906104 18.57951874 7.30906104 18.57951874 6.875 21.5625 C6.70742187 22.57441406 6.53984375 23.58632812 6.3671875 24.62890625 C6.24601563 25.41136719 6.12484375 26.19382813 6 27 C4.02 27.33 2.04 27.66 0 28 C0 27.01 0 26.02 0 25 C0.66 24.67 1.32 24.34 2 24 C2.46842712 21.97666066 2.46842712 21.97666066 2.625 19.625 C2.69976562 18.83351562 2.77453125 18.04203125 2.8515625 17.2265625 C3.15494263 12.6758606 2.72436337 8.49105289 2 4 C1.34 3.67 0.68 3.34 0 3 C0 2.01 0 1.02 0 0 Z " fill="#38CE81" transform="translate(140,122)"/>
<path d="M0 0 C3.22228871 1.28548752 5.06194984 3.4558426 7.453125 5.94140625 C8.34515625 6.86050781 9.2371875 7.77960938 10.15625 8.7265625 C10.83171875 9.43683594 11.5071875 10.14710937 12.203125 10.87890625 C9.203125 10.87890625 9.203125 10.87890625 7.30078125 9.1640625 C5.94649508 7.68500525 4.59232797 6.20583897 3.23828125 4.7265625 C1.1468823 2.82784522 -0.04218329 2.26715139 -2.796875 1.87890625 C-3.003125 2.41515625 -3.209375 2.95140625 -3.421875 3.50390625 C-5.37482669 6.87718644 -7.52008565 9.70437785 -10.796875 11.87890625 C-14.296875 11.81640625 -14.296875 11.81640625 -17.796875 10.87890625 C-24.93457225 9.41892272 -32.18948781 8.57521266 -38.796875 11.87890625 C-33.846875 11.87890625 -28.896875 11.87890625 -23.796875 11.87890625 C-23.796875 12.20890625 -23.796875 12.53890625 -23.796875 12.87890625 C-25.45976563 13.07806641 -25.45976563 13.07806641 -27.15625 13.28125 C-28.6198077 13.45950382 -30.08334849 13.63789653 -31.546875 13.81640625 C-32.27648438 13.90341797 -33.00609375 13.99042969 -33.7578125 14.08007812 C-37.17271942 14.49918034 -40.47291043 14.99618025 -43.796875 15.87890625 C-43.671875 13.56640625 -43.671875 13.56640625 -42.796875 10.87890625 C-37.7087378 7.4679997 -33.24921725 7.48154507 -27.359375 7.62890625 C-26.53888672 7.6340625 -25.71839844 7.63921875 -24.87304688 7.64453125 C-21.07641626 7.69301177 -17.68194939 7.90147261 -13.9375 8.63671875 C-10.76970954 9.22941824 -10.76970954 9.22941824 -8.65234375 7.26171875 C-8.10191406 6.51664062 -7.55148438 5.7715625 -6.984375 5.00390625 C-3.01984293 -0.20351115 -3.01984293 -0.20351115 0 0 Z " fill="#845F32" transform="translate(87.796875,58.12109375)"/>
<path d="M0 0 C0.33 0 0.66 0 1 0 C2.46845834 12.9539004 2.08747275 25.98599829 2 39 C9.26 39 16.52 39 24 39 C24.33 36.69 24.66 34.38 25 32 C25.33 32 25.66 32 26 32 C26 34.31 26 36.62 26 39 C21.0330001 41.72350204 16.20500432 41.04780923 10.75 40.6875 C9.82703125 40.63916016 8.9040625 40.59082031 7.953125 40.54101562 C1.14557719 40.14557719 1.14557719 40.14557719 0 39 C-1.00476016 29.91994521 -1.09909927 20.75147365 -1.125 11.625 C-1.12959229 10.70364258 -1.13418457 9.78228516 -1.13891602 8.83300781 C-1.13589478 7.54281738 -1.13589478 7.54281738 -1.1328125 6.2265625 C-1.13168457 5.45908691 -1.13055664 4.69161133 -1.12939453 3.90087891 C-1 2 -1 2 0 0 Z " fill="#A5E3CA" transform="translate(155,117)"/>
<path d="M0 0 C3.04169892 0.46086347 5.32978975 1.15829908 8.125 2.5 C12.1627196 4.33209303 16.16126728 4.53180618 20.546875 4.7890625 C23 5 23 5 26 6 C28.45536342 6.14675735 30.91542552 6.22100698 33.375 6.25 C34.68210938 6.27578125 35.98921875 6.3015625 37.3359375 6.328125 C41.19113629 5.98288332 42.79725885 5.00308897 46 3 C48.3125 3.3125 48.3125 3.3125 50 4 C48.75264433 4.6509259 47.50198168 5.29551669 46.25 5.9375 C45.55390625 6.29714844 44.8578125 6.65679687 44.140625 7.02734375 C35.15717974 11.10923767 22.09764 10.58403274 12.9375 7.5078125 C1.54993774 3.09987547 1.54993774 3.09987547 0 0 Z " fill="#48C876" transform="translate(30,140)"/>
<path d="M0 0 C4.84614661 3.94453794 9.35532348 8.18901477 13.8125 12.5625 C14.38766357 13.11639404 14.96282715 13.67028809 15.55541992 14.2409668 C18.63061503 17.29070574 20.753074 19.73503656 22 24 C18.0480511 23.45202185 16.26735421 21.61687166 13.5234375 18.81640625 C12.688125 17.97142578 11.8528125 17.12644531 10.9921875 16.25585938 C10.12851563 15.36705078 9.26484375 14.47824219 8.375 13.5625 C7.50359375 12.67755859 6.6321875 11.79261719 5.734375 10.88085938 C4.12208107 9.24235943 2.51287718 7.60080933 0.90771484 5.95532227 C-0.38656632 4.62874204 -1.6894698 3.3105302 -3 2 C-2.01 2 -1.02 2 0 2 C0 1.34 0 0.68 0 0 Z " fill="#7CC89A" transform="translate(90,55)"/>
<path d="M0 0 C-0.33 0.99 -0.66 1.98 -1 3 C-0.4225 3.556875 0.155 4.11375 0.75 4.6875 C3.0110273 7.01133361 5.01064607 9.44225924 7 12 C6.67 12.66 6.34 13.32 6 14 C4.99406757 12.8803014 3.9954151 11.7540588 3 10.625 C2.443125 9.99851562 1.88625 9.37203125 1.3125 8.7265625 C0 7 0 7 0 5 C-0.66 4.896875 -1.32 4.79375 -2 4.6875 C-5 4 -5 4 -8.3125 2.4375 C-14.77728453 -0.13841028 -22.17163293 0.77625496 -29 1 C-24.50029825 -7.9994035 -7.10075378 -1.89654473 0 0 Z " fill="#B52213" transform="translate(77,70)"/>
<path d="M0 0 C0.69931641 0.00386719 1.39863281 0.00773437 2.11914062 0.01171875 C7.08045841 0.09494682 11.37076191 0.6860873 16.0625 2.25 C13.25259197 3.05721853 10.85464885 3.3437764 7.9375 3.2421875 C7.1535083 3.22349609 6.3695166 3.20480469 5.56176758 3.18554688 C4.73700928 3.16556641 3.91225098 3.14558594 3.0625 3.125 C-4.67802709 3.01261485 -11.54146284 3.76989173 -18.9375 6.25 C-18.9375 6.91 -18.9375 7.57 -18.9375 8.25 C-20.80078125 9.58203125 -20.80078125 9.58203125 -23.25 11.0625 C-26.87422286 13.38177469 -29.15509469 15.20988129 -30.9375 19.25 C-31.2675 18.59 -31.5975 17.93 -31.9375 17.25 C-29.31381768 13.07154297 -26.69404261 9.52493458 -22.9375 6.25 C-21.9475 6.25 -20.9575 6.25 -19.9375 6.25 C-19.9375 5.59 -19.9375 4.93 -19.9375 4.25 C-13.31582171 1.44080315 -7.21084428 -0.09678986 0 0 Z " fill="#1DE289" transform="translate(57.9375,44.75)"/>
<path d="M0 0 C0.99 0 1.98 0 3 0 C1.42705864 3.86085606 -0.71143007 6.44222339 -4 9 C-5.64404913 8.82340137 -7.28867361 8.62954693 -8.91577148 8.33520508 C-12.89033402 7.69597884 -16.92063297 7.62383376 -20.9375 7.4375 C-22.24944336 7.37272461 -22.24944336 7.37272461 -23.58789062 7.30664062 C-25.72511995 7.20153099 -27.86254238 7.10036015 -30 7 C-29.34 6.01 -28.68 5.02 -28 4 C-19.94816199 2.99352025 -11.81930976 3.98211361 -4 6 C-4 5.01 -4 4.02 -4 3 C-2.68 2.67 -1.36 2.34 0 2 C0 1.34 0 0.68 0 0 Z " fill="#2EDA80" transform="translate(81,59)"/>
<path d="M0 0 C4 0 4 0 5.8125 1.5 C6.8953125 2.7375 6.8953125 2.7375 8 4 C8.56203125 4.64066406 9.1240625 5.28132813 9.703125 5.94140625 C10.91324244 7.32185535 12.11797539 8.7070494 13.31640625 10.09765625 C14.9529793 12.00366685 14.9529793 12.00366685 16.71484375 13.62109375 C18 15 18 15 18 17 C18.598125 17.226875 19.19625 17.45375 19.8125 17.6875 C23.66496728 19.99898037 25.05567803 24.09473792 27 28 C23.18752484 24.88777538 19.74304555 21.82199278 16.5625 18.0625 C14.17228778 15.23721544 11.71286408 12.81214799 8.875 10.4375 C5.17754054 7.31552061 2.64160162 4.04495248 0 0 Z " fill="#B1432D" transform="translate(84,84)"/>
<path d="M0 0 C2.6394664 1.26486464 5.02433389 2.66251783 7.4375 4.3125 C12.89252814 7.79046861 18.93664183 9.82791285 25 12 C23.19921875 13.53125 23.19921875 13.53125 21 15 C13.00250024 13.74549023 5.11576982 9.27094366 0 3 C0 2.01 0 1.02 0 0 Z " fill="#A23110" transform="translate(23,136)"/>
<path d="M0 0 C1.65 0 3.3 0 5 0 C5.70970661 5.41151289 6.13107366 10.24448971 5.5 15.6875 C5.4071875 16.49574219 5.314375 17.30398437 5.21875 18.13671875 C5.11046875 19.05904297 5.11046875 19.05904297 5 20 C4.01 20.33 3.02 20.66 2 21 C2 21.99 2 22.98 2 24 C2.99 24.66 3.98 25.32 5 26 C3.33388095 26.042721 1.66617115 26.04063832 0 26 C-1 25 -1 25 -1.1875 22.5625 C-1 20 -1 20 1 18 C2.31074241 11.62598653 2.29587558 6.07731771 0 0 Z " fill="#4A7552" transform="translate(138,126)"/>
<path d="M0 0 C3.78630702 0.75567052 5.4041044 2.12597273 8 5 C7.67 5.66 7.34 6.32 7 7 C6.195625 6.34 5.39125 5.68 4.5625 5 C2.41038085 2.89745486 2.41038085 2.89745486 1 3 C0.67 5.31 0.34 7.62 0 10 C-0.66 10 -1.32 10 -2 10 C-2.06058594 10.61488281 -2.12117188 11.22976562 -2.18359375 11.86328125 C-2.30927734 13.07564453 -2.30927734 13.07564453 -2.4375 14.3125 C-2.51871094 15.11300781 -2.59992187 15.91351563 -2.68359375 16.73828125 C-3 19 -3 19 -4 22 C-3.01 22 -2.02 22 -1 22 C0.54779543 24.26216255 1.77612283 26.55224566 3 29 C-0.4789459 27.45380182 -3.33449889 25.73954281 -6 23 C-6.61290788 17.17737519 -5.14551444 12.84413802 -3 7.5625 C-2.71382812 6.83095703 -2.42765625 6.09941406 -2.1328125 5.34570312 C-1.43239577 3.55964046 -0.71766189 1.77920344 0 0 Z " fill="#42C485" transform="translate(27,111)"/>
<path d="M0 0 C10.43906156 -0.26061457 17.71412428 0.01733498 27 5 C26.67 6.65 26.34 8.3 26 10 C25.01 10 24.02 10 23 10 C23 9.01 23 8.02 23 7 C20.21356233 5.46948242 17.84971085 4.66188141 14.70703125 4.21875 C13.91232422 4.09886719 13.11761719 3.97898437 12.29882812 3.85546875 C10.62979122 3.61684761 8.96051561 3.37989066 7.29101562 3.14453125 C5.18366384 2.82507939 3.08979392 2.41921643 1 2 C0.67 1.34 0.34 0.68 0 0 Z " fill="#83B189" transform="translate(46,113)"/>
<path d="M0 0 C0.44730469 0.40992187 0.89460938 0.81984375 1.35546875 1.2421875 C4.77342048 4.28846431 7.5978434 6.53261447 12 8 C12.99 8.66 13.98 9.32 15 10 C17.21499521 10.63500898 17.21499521 10.63500898 19.66796875 11.0703125 C20.56064453 11.24433594 21.45332031 11.41835937 22.37304688 11.59765625 C23.76620117 11.85869141 23.76620117 11.85869141 25.1875 12.125 C26.12787109 12.30675781 27.06824219 12.48851563 28.03710938 12.67578125 C30.35697829 13.12326865 32.67787059 13.56442242 35 14 C30.69577494 15.31052767 27.0629466 14.45785552 22.75 13.5625 C22.00492188 13.41490234 21.25984375 13.26730469 20.4921875 13.11523438 C18.65992335 12.7511306 16.82973947 12.37658591 15 12 C15 12.66 15 13.32 15 14 C9.53996993 12.66828535 5.70299057 10.16220049 2 6 C0.5625 2.625 0.5625 2.625 0 0 Z " fill="#9C3315" transform="translate(26,95)"/>
<path d="M0 0 C0 10.23 0 20.46 0 31 C-0.33 31 -0.66 31 -1 31 C-1.75475351 22.64380043 -2.13605482 14.39004715 -2 6 C-3.98 7.32 -5.96 8.64 -8 10 C-7.61508669 5.50934475 -5.14531178 0 0 0 Z " fill="#61C998" transform="translate(157,99)"/>
<path d="M0 0 C0.33 0 0.66 0 1 0 C1.45999135 19.16630623 1.45999135 19.16630623 -1 25 C-3.75 27.3125 -3.75 27.3125 -7 29 C-9.06243598 30.60048765 -11.01706216 32.30033899 -13 34 C-12.505 31.03 -12.505 31.03 -12 28 C-11.01 28 -10.02 28 -9 28 C-9 27.34 -9 26.68 -9 26 C-8.21625 25.566875 -7.4325 25.13375 -6.625 24.6875 C-3.38168219 22.60250998 -3.11350509 21.65728828 -2 18 C-1.49433215 14.90720271 -1.17529688 11.80615699 -0.875 8.6875 C-0.74544922 7.43356445 -0.74544922 7.43356445 -0.61328125 6.15429688 C-0.40234458 4.1035237 -0.20028354 2.05184097 0 0 Z " fill="#28BE79" transform="translate(94,109)"/>
<path d="M0 0 C0.33 0.99 0.66 1.98 1 3 C0.2575 3.556875 -0.485 4.11375 -1.25 4.6875 C-4.01779654 6.8444177 -4.01779654 6.8444177 -5.8125 9.375 C-8.30500573 12.36600688 -11.01855295 14.3525747 -14.1953125 16.5703125 C-16.25817474 18.05387157 -16.25817474 18.05387157 -18 21 C-21.625 21.1875 -21.625 21.1875 -25 21 C-25 19.35 -25 17.7 -25 16 C-24.38125 16.495 -23.7625 16.99 -23.125 17.5 C-21.16119096 19.19222773 -21.16119096 19.19222773 -19 19 C-16.27004182 16.49138978 -13.87353344 13.84824012 -11.5 11 C-8.0263464 6.83161568 -4.44511825 3.12804618 0 0 Z " fill="#9C3C22" transform="translate(149,78)"/>
<path d="M0 0 C2.90782833 1.31484411 5.00641558 2.73375311 7.25 5 C8.03117187 5.7734375 8.03117187 5.7734375 8.828125 6.5625 C10 8 10 8 10 10 C10.66 10 11.32 10 12 10 C13.02104551 10.97850195 14.0206121 11.97980427 15 13 C15.66 13.33 16.32 13.66 17 14 C17.38285156 13.11054687 17.38285156 13.11054687 17.7734375 12.203125 C19.11816498 9.78775462 20.49214367 8.48788294 22.625 6.75 C23.25664062 6.22921875 23.88828125 5.7084375 24.5390625 5.171875 C25.26222656 4.59179688 25.26222656 4.59179688 26 4 C24.71046371 6.68554805 23.31981575 9.17453392 21.625 11.625 C21.22539062 12.21539062 20.82578125 12.80578125 20.4140625 13.4140625 C18.78627162 15.23970641 17.23107641 16.04111184 15 17 C9.45050476 11.67248457 4.39497902 6.32532275 0 0 Z " fill="#8E9E88" transform="translate(111,112)"/>
<path d="M0 0 C1.31484375 0.00386719 2.6296875 0.00773437 3.984375 0.01171875 C7.25 0.3125 7.25 0.3125 9.25 2.3125 C8.21359375 2.28929688 7.1771875 2.26609375 6.109375 2.2421875 C4.73959056 2.22342333 3.3697983 2.20522382 2 2.1875 C0.97712891 2.16236328 0.97712891 2.16236328 -0.06640625 2.13671875 C-4.13537077 2.09721424 -5.99899321 2.43699661 -9.75 4.3125 C-4.8 4.3125 0.15 4.3125 5.25 4.3125 C5.25 4.6425 5.25 4.9725 5.25 5.3125 C3.58710937 5.51166016 3.58710937 5.51166016 1.890625 5.71484375 C0.4270673 5.89309757 -1.03647349 6.07149028 -2.5 6.25 C-3.22960938 6.33701172 -3.95921875 6.42402344 -4.7109375 6.51367188 C-8.12584442 6.93277409 -11.42603543 7.429774 -14.75 8.3125 C-14.625 6 -14.625 6 -13.75 3.3125 C-9.12280772 0.3449086 -5.43417049 -0.06980654 0 0 Z " fill="#885028" transform="translate(58.75,65.6875)"/>
<path d="M0 0 C0.33 0.66 0.66 1.32 1 2 C-2.70927876 8.13457641 -7.2130719 11.77109101 -13 16 C-13.66 15.67 -14.32 15.34 -15 15 C-14.67 14.67 -14.34 14.34 -14 14 C-14.99 13.34 -15.98 12.68 -17 12 C-15.91332031 11.45472656 -15.91332031 11.45472656 -14.8046875 10.8984375 C-8.93293762 7.84512756 -4.38055036 4.97251663 0 0 Z " fill="#80481F" transform="translate(89,135)"/>
<path d="M0 0 C0.33 0 0.66 0 1 0 C1.33 6.6 1.66 13.2 2 20 C3.32 20.33 4.64 20.66 6 21 C7.703125 22.62890625 7.703125 22.62890625 9.25 24.5625 C10.03117187 25.52349609 10.03117187 25.52349609 10.828125 26.50390625 C11.21484375 26.99761719 11.6015625 27.49132812 12 28 C11.67 28.66 11.34 29.32 11 30 C10.113125 29.38125 9.22625 28.7625 8.3125 28.125 C4.85356216 25.75897812 4.85356216 25.75897812 0 24 C0 16.08 0 8.16 0 0 Z " fill="#2DCA7E" transform="translate(23,71)"/>
<path d="M0 0 C1.32 0.33 2.64 0.66 4 1 C4.20496094 1.98742187 4.40992187 2.97484375 4.62109375 3.9921875 C4.89050781 5.27351562 5.15992187 6.55484375 5.4375 7.875 C5.70433594 9.15117187 5.97117187 10.42734375 6.24609375 11.7421875 C6.8347826 14.86460244 6.8347826 14.86460244 8 17 C11.02934491 17.65772428 11.02934491 17.65772428 14 18 C14 16.35 14 14.7 14 13 C14.33 13 14.66 13 15 13 C15 14.98 15 16.96 15 19 C7.8 19.48 7.8 19.48 4.5 17.5 C2.31594766 13.85991277 2.71976982 11.20345267 3 7 C2.01 6.67 1.02 6.34 0 6 C0 4.02 0 2.04 0 0 Z " fill="#724434" transform="translate(98,133)"/>
<path d="M0 0 C-2 2 -2 2 -5 3 C-6.2370916 6.7112748 -6.19475487 9.86582252 -4.56640625 13.484375 C-0.94914193 16.9843714 5.20750194 16.6650037 10 17 C10 17.33 10 17.66 10 18 C4.24437157 18.23492361 -0.56544696 17.99636642 -6 16 C-8 14 -8 14 -8.23046875 11.72265625 C-8.21628906 10.84480469 -8.20210937 9.96695313 -8.1875 9.0625 C-8.18105469 8.18722656 -8.17460938 7.31195313 -8.16796875 6.41015625 C-8 4 -8 4 -7 1 C-4.53721199 -0.231394 -2.7204945 -0.07159196 0 0 Z " fill="#41BC72" transform="translate(51,66)"/>
<path d="M0 0 C2.64 0 5.28 0 8 0 C6.640625 1.984375 6.640625 1.984375 4 4 C0.57486085 4.51270905 -2.79637621 4.37576221 -6.25 4.25 C-7.18585937 4.23195312 -8.12171875 4.21390625 -9.0859375 4.1953125 C-11.39167015 4.14825673 -13.69530945 4.08253713 -16 4 C-14 2 -14 2 -10.7421875 1.8046875 C-9.46601562 1.82789063 -8.18984375 1.85109375 -6.875 1.875 C-4.95300781 1.90207031 -4.95300781 1.90207031 -2.9921875 1.9296875 C-1.51105469 1.96449219 -1.51105469 1.96449219 0 2 C0 1.34 0 0.68 0 0 Z " fill="#BC200B" transform="translate(68,148)"/>
<path d="M0 0 C1.32 0 2.64 0 4 0 C5.39300182 1.95890881 6.72245446 3.9639118 8 6 C10.40439855 8.32683731 11.39051145 8.95844396 14.75 9.1875 C15.4925 9.125625 16.235 9.06375 17 9 C17 8.34 17 7.68 17 7 C17.99 7.33 18.98 7.66 20 8 C18.35 9.98 16.7 11.96 15 14 C12.525 13.01 12.525 13.01 10 12 C10 11.34 10 10.68 10 10 C9.34 10 8.68 10 8 10 C6.30859375 8.3203125 6.30859375 8.3203125 4.4375 6.125 C3.50744141 5.04605469 3.50744141 5.04605469 2.55859375 3.9453125 C1 2 1 2 0 0 Z " fill="#AD2E1A" transform="translate(113,112)"/>
<path d="M0 0 C0.33 0 0.66 0 1 0 C1.12117188 0.63808594 1.24234375 1.27617187 1.3671875 1.93359375 C1.53476563 2.75988281 1.70234375 3.58617187 1.875 4.4375 C2.03742188 5.26121094 2.19984375 6.08492187 2.3671875 6.93359375 C2.57601562 7.61550781 2.78484375 8.29742187 3 9 C3.66 9.33 4.32 9.66 5 10 C4.67 9.34 4.34 8.68 4 8 C3.95977609 5.6670134 3.95679753 3.33293334 4 1 C4.33 1 4.66 1 5 1 C5 2.98 5 4.96 5 7 C6.32 7 7.64 7 9 7 C9 8.98 9 10.96 9 13 C7.02 13 5.04 13 3 13 C0.33409063 8.44573816 -0.31563182 5.26053037 0 0 Z " fill="#8B1D10" transform="translate(103,138)"/>
<path d="M0 0 C0.92683594 -0.00515625 1.85367188 -0.0103125 2.80859375 -0.015625 C5.72304176 0.26548488 7.91140497 1.03752097 10.5625 2.25 C10.5625 2.58 10.5625 2.91 10.5625 3.25 C0.1675 3.745 0.1675 3.745 -10.4375 4.25 C-8.31951996 0.01403992 -4.33640858 -0.02405775 0 0 Z " fill="#C21C08" transform="translate(58.4375,66.75)"/>
<path d="M0 0 C0.66 0 1.32 0 2 0 C2 4 2 4 0.49609375 5.7109375 C-0.18324219 6.26007812 -0.86257812 6.80921875 -1.5625 7.375 C-2.64724609 8.27025391 -2.64724609 8.27025391 -3.75390625 9.18359375 C-4.49511719 9.78300781 -5.23632812 10.38242187 -6 11 C-7.33674318 12.14185352 -8.67039083 13.28734728 -10 14.4375 C-10.99 15.283125 -11.98 16.12875 -13 17 C-13.66 16.67 -14.32 16.34 -15 16 C-14.41992188 15.43152344 -13.83984375 14.86304688 -13.2421875 14.27734375 C-9.5299688 10.60800547 -5.8881861 6.96463354 -2.5625 2.9375 C-1.2940625 1.4834375 -1.2940625 1.4834375 0 0 Z " fill="#60BC7C" transform="translate(177,46)"/>
<path d="M0 0 C0 3 0 3 -1.19335938 4.53393555 C-2.01030273 5.32731323 -2.01030273 5.32731323 -2.84375 6.13671875 C-3.43027344 6.71357422 -4.01679688 7.29042969 -4.62109375 7.88476562 C-5.24113281 8.47966797 -5.86117187 9.07457031 -6.5 9.6875 C-7.12003906 10.29400391 -7.74007812 10.90050781 -8.37890625 11.52539062 C-9.91264707 13.02373743 -11.45548198 14.51276493 -13 16 C-16.76488042 14.27845212 -19.15063897 12.00765886 -22 9 C-21.67 8.34 -21.34 7.68 -21 7 C-19.02 8.65 -17.04 10.3 -15 12 C-10.45925821 10.57641609 -7.96026853 8.27867927 -4.6875 4.875 C-3.80449219 3.96492188 -2.92148438 3.05484375 -2.01171875 2.1171875 C-1.34785156 1.41851562 -0.68398437 0.71984375 0 0 Z " fill="#ACE8CC" transform="translate(143,79)"/>
<path d="M0 0 C6.38479058 0.02895597 10.06849158 1.17432216 14.78515625 5.52734375 C16 7 16 7 16 9 C14.02 9.66 12.04 10.32 10 11 C9.67 9.02 9.34 7.04 9 5 C8.01 4.67 7.02 4.34 6 4 C6 3.34 6 2.68 6 2 C3.03 1.505 3.03 1.505 0 1 C0 0.67 0 0.34 0 0 Z " fill="#2ED186" transform="translate(74,48)"/>
<path d="M0 0 C5.5 1.46666667 5.5 1.46666667 7.875 4 C9 6 9 6 9 8 C6.89511112 7.54895238 5.14108513 7.0781007 3.25 6.03125 C0.44043896 4.74353452 -2.19861604 4.33934104 -5.25 3.875 C-6.32765625 3.70742187 -7.4053125 3.53984375 -8.515625 3.3671875 C-9.74539062 3.18542969 -9.74539062 3.18542969 -11 3 C-11 2.67 -11 2.34 -11 2 C-7.37 2 -3.74 2 0 2 C0 1.34 0 0.68 0 0 Z " fill="#90411D" transform="translate(65,110)"/>
<path d="M0 0 C0.66 0.33 1.32 0.66 2 1 C-1.49362423 4.71197575 -5.17590211 7.70990019 -9.328125 10.66796875 C-11.1321474 11.91356882 -11.1321474 11.91356882 -12 14 C-12.66 14 -13.32 14 -14 14 C-14.66 15.32 -15.32 16.64 -16 18 C-16.33 17.01 -16.66 16.02 -17 15 C-14.73737364 12.67934614 -12.46356994 10.36996401 -10.1875 8.0625 C-9.54490234 7.40314453 -8.90230469 6.74378906 -8.24023438 6.06445312 C-7.61826172 5.43603516 -6.99628906 4.80761719 -6.35546875 4.16015625 C-5.49924927 3.28822632 -5.49924927 3.28822632 -4.62573242 2.39868164 C-3 1 -3 1 0 0 Z " fill="#7B9A6C" transform="translate(164,62)"/>
<path d="M0 0 C0 0.66 0 1.32 0 2 C-1.35546875 3.33203125 -1.35546875 3.33203125 -3.1875 4.8125 C-5.50228041 6.72511654 -7.61900908 8.61900908 -9.75 10.75 C-12 13 -12 13 -15 15 C-14.75 13.125 -14.75 13.125 -14 11 C-13.34 10.690625 -12.68 10.38125 -12 10.0625 C-11.34 9.711875 -10.68 9.36125 -10 9 C-9.18828772 6.44480079 -9.18828772 6.44480079 -9 4 C-7.68 3.67 -6.36 3.34 -5 3 C-5 2.34 -5 1.68 -5 1 C-3 0 -3 0 0 0 Z " fill="#C01F0F" transform="translate(148,104)"/>
<path d="M0 0 C2.70931419 0.15481795 4.46584039 0.48172081 6.4453125 2.40234375 C7.67679642 3.89771708 8.8429837 5.4462924 10 7 C9.01 7 8.02 7 7 7 C6.34 6.01 5.68 5.02 5 4 C2.47671825 4.43504858 1.26840377 4.70922925 -0.5 6.625 C-0.995 7.07875 -1.49 7.5325 -2 8 C-3.32 7.67 -4.64 7.34 -6 7 C-4.02 4.69 -2.04 2.38 0 0 Z " fill="#DD1006" transform="translate(85,60)"/>
<path d="M0 0 C2 3 2 3 2.5 5.125 C2.665 5.74375 2.83 6.3625 3 7 C3.66 7.33 4.32 7.66 5 8 C5.1875 11.375 5.1875 11.375 5 15 C4.01 15.66 3.02 16.32 2 17 C1.26656572 20.06556598 1.26656572 20.06556598 1 23 C0.67 23 0.34 23 0 23 C0 20.36 0 17.72 0 15 C0.99 15 1.98 15 3 15 C3 13.02 3 11.04 3 9 C2.01 9 1.02 9 0 9 C0 6.03 0 3.06 0 0 Z " fill="#A9B7A5" transform="translate(148,124)"/>
<path d="M0 0 C8.1533103 -0.51224986 15.76599729 -0.20038867 23 4 C23.66 5.32 24.32 6.64 25 8 C22.03 7.01 19.06 6.02 16 5 C16 4.34 16 3.68 16 3 C10.72 2.34 5.44 1.68 0 1 C0 0.67 0 0.34 0 0 Z " fill="#81AC7D" transform="translate(54,71)"/>
<path d="M0 0 C0.66 0.33 1.32 0.66 2 1 C1.0114653 3.69600373 0.34022364 4.80558649 -2.1875 6.25 C-5.54230653 7.14461507 -8.54297098 7.13556977 -12 7 C-11.67 6.01 -11.34 5.02 -11 4 C-9.00390625 3.33984375 -9.00390625 3.33984375 -6.5625 2.9375 C-2.85836343 2.36828485 -2.85836343 2.36828485 0 0 Z " fill="#848861" transform="translate(78,148)"/>
<path d="M0 0 C1.32 0 2.64 0 4 0 C4.0825 0.61875 4.165 1.2375 4.25 1.875 C4.78035516 4.16150356 4.78035516 4.16150356 6.875 4.9375 C10.79288822 6.89644411 12.11828521 11.22048739 14 15 C8.79814679 10.75358921 4.15632577 6.29331458 0 1 C0 0.67 0 0.34 0 0 Z " fill="#B35D4E" transform="translate(97,97)"/>
<path d="M0 0 C0.99 0.33 1.98 0.66 3 1 C2.9129995 2.62600941 2.8048219 4.25089678 2.6875 5.875 C2.62949219 6.77992187 2.57148437 7.68484375 2.51171875 8.6171875 C2 11 2 11 -1 13 C-3.6875 13.125 -3.6875 13.125 -6 13 C-6 12.34 -6 11.68 -6 11 C-4.35 10.34 -2.7 9.68 -1 9 C-0.67 6.03 -0.34 3.06 0 0 Z " fill="#2ED27F" transform="translate(73,113)"/>
<path d="M0 0 C3.37534275 1.37278091 4.6632735 2.5776937 6.1875 5.875 C6.67283203 6.89207031 6.67283203 6.89207031 7.16796875 7.9296875 C8.65372605 11.62664228 9.1210576 14.76808323 9.0625 18.75 C9.05347656 19.54921875 9.04445313 20.3484375 9.03515625 21.171875 C9.02355469 21.77515625 9.01195313 22.3784375 9 23 C8.67 23 8.34 23 8 23 C7.80664062 22.09636719 7.61328125 21.19273438 7.4140625 20.26171875 C7.15367188 19.08222656 6.89328125 17.90273437 6.625 16.6875 C6.24214844 14.92986328 6.24214844 14.92986328 5.8515625 13.13671875 C5.14304469 9.87079555 5.14304469 9.87079555 3 7 C3 5.68 3 4.36 3 3 C2.01 3 1.02 3 0 3 C0 2.01 0 1.02 0 0 Z " fill="#20DF8A" transform="translate(85,93)"/>
<path d="M0 0 C0.99 0.33 1.98 0.66 3 1 C3 5.29 3 9.58 3 14 C-0.34042553 7.31914894 -0.34042553 7.31914894 1 3 C-0.65 4.32 -2.3 5.64 -4 7 C-3.43628586 3.73045798 -2.50037734 2.17424117 0 0 Z " fill="#7ED8AE" transform="translate(178,43)"/>
<path d="M0 0 C0.82177734 0.19916016 0.82177734 0.19916016 1.66015625 0.40234375 C9.41777614 2.13046395 17.08044291 2.59874244 25 3 C25 3.33 25 3.66 25 4 C16.03549256 5.1398171 8.58299506 4.86099835 0 2 C0 1.34 0 0.68 0 0 Z " fill="#B1D1C5" transform="translate(42,153)"/>
<path d="M0 0 C0 4.83418055 -3.2807343 7.24477102 -6.5 10.625 C-8.58650689 12.60718154 -10.65080525 14.34686296 -13 16 C-12.42308522 12.83145253 -11.58353113 11.21773541 -9.27734375 8.984375 C-8.73916016 8.45585938 -8.20097656 7.92734375 -7.64648438 7.3828125 C-7.08251953 6.84398438 -6.51855469 6.30515625 -5.9375 5.75 C-5.36966797 5.19570312 -4.80183594 4.64140625 -4.21679688 4.0703125 C-2.81787531 2.70665786 -1.40980886 1.35239583 0 0 Z " fill="#7BA87E" transform="translate(146,78)"/>
<path d="M0 0 C1.8871875 0.2475 1.8871875 0.2475 3.8125 0.5 C11.21068 1.31683375 18.68872722 1.58081574 26 0 C25.01953125 1.48046875 25.01953125 1.48046875 23 3 C20.14255489 3.27311654 17.53771611 3.37303985 14.6875 3.3125 C13.56698242 3.31733398 13.56698242 3.31733398 12.42382812 3.32226562 C7.90992833 3.27867221 4.24740768 2.69491149 0 1 C0 0.67 0 0.34 0 0 Z " fill="#17E586" transform="translate(45,126)"/>
<path d="M0 0 C0 3.93154432 -1.25327015 6.5065403 -3 10 C-6 11 -6 11 -8 11 C-9.34882408 11.63474075 -10.6846659 12.29848848 -12 13 C-11.04882866 11.8274869 -10.08882991 10.66212985 -9.125 9.5 C-8.59132812 8.8503125 -8.05765625 8.200625 -7.5078125 7.53125 C-7.01023438 7.0259375 -6.51265625 6.520625 -6 6 C-5.34 6 -4.68 6 -4 6 C-3.566875 5.071875 -3.566875 5.071875 -3.125 4.125 C-2 2 -2 2 0 0 Z " fill="#809E6D" transform="translate(152,100)"/>
<path d="M0 0 C0.33 0 0.66 0 1 0 C1.6700834 2.12392506 2.33596797 4.24917524 3 6.375 C3.37125 7.55835938 3.7425 8.74171875 4.125 9.9609375 C5 13 5 13 5 15 C1.125 13.25 1.125 13.25 0 11 C-0.07033769 9.12620395 -0.0843022 7.24998898 -0.0625 5.375 C-0.05347656 4.37210938 -0.04445313 3.36921875 -0.03515625 2.3359375 C-0.02355469 1.56507813 -0.01195313 0.79421875 0 0 Z " fill="#7FD1A4" transform="translate(20,129)"/>
<path d="M0 0 C0.44730469 0.40992187 0.89460938 0.81984375 1.35546875 1.2421875 C4.73744485 4.25640074 7.579668 6.66050545 12 8 C11.360625 8.12375 10.72125 8.2475 10.0625 8.375 C9.381875 8.58125 8.70125 8.7875 8 9 C7.67 9.66 7.34 10.32 7 11 C6.01216806 9.92456217 5.03506057 8.83926783 4.0625 7.75 C3.51722656 7.14671875 2.97195312 6.5434375 2.41015625 5.921875 C0.93787201 3.91532695 0.42470811 2.42997551 0 0 Z " fill="#6D5628" transform="translate(26,95)"/>
<path d="M0 0 C0.33 0 0.66 0 1 0 C1.33 2.64 1.66 5.28 2 8 C1.34 8 0.68 8 0 8 C0 8.99 0 9.98 0 11 C0.99 11.66 1.98 12.32 3 13 C1.33388095 13.042721 -0.33382885 13.04063832 -2 13 C-3 12 -3 12 -3.1875 9.5625 C-3 7 -3 7 -1 5 C-0.35232207 2.42938689 -0.35232207 2.42938689 0 0 Z " fill="#74806F" transform="translate(140,139)"/>
<path d="M0 0 C6.21556431 0.8020083 12.76868433 3.28356534 17 8 C11.00067626 6.1668733 5.55079437 3.92678249 0 1 C0 0.67 0 0.34 0 0 Z " fill="#59BB71" transform="translate(30,140)"/>
<path d="M0 0 C1.32 0.33 2.64 0.66 4 1 C3.01 1 2.02 1 1 1 C0.67 2.98 0.34 4.96 0 7 C-2.64 7.66 -5.28 8.32 -8 9 C-6.125 5.125 -6.125 5.125 -5 4 C-3.33382885 3.95936168 -1.66611905 3.957279 0 4 C0 2.68 0 1.36 0 0 Z " fill="#15E786" transform="translate(81,136)"/>
<path d="M0 0 C6.625 -0.25 6.625 -0.25 10 2 C10 2.66 10 3.32 10 4 C7.36 3.34 4.72 2.68 2 2 C2 2.99 2 3.98 2 5 C2.66 5.33 3.32 5.66 4 6 C2.68 6 1.36 6 0 6 C0 4.02 0 2.04 0 0 Z " fill="#2C4C2F" transform="translate(138,120)"/>
<path d="M0 0 C0 5.28 0 10.56 0 16 C-0.33 16 -0.66 16 -1 16 C-1 12.04 -1 8.08 -1 4 C-2.98 5.32 -4.96 6.64 -7 8 C-6.65548076 4.78448712 -5.97711248 3.97940123 -3.5 1.75 C-1 0 -1 0 0 0 Z " fill="#95DEC5" transform="translate(156,101)"/>
<path d="M0 0 C5.27315333 0.4452885 10.01770224 1.08373163 15 3 C11.73086376 4.03115279 9.13958652 3.9638984 5.75 3.5625 C4.85796875 3.46066406 3.9659375 3.35882813 3.046875 3.25390625 C2.37140625 3.17011719 1.6959375 3.08632812 1 3 C0.67 2.01 0.34 1.02 0 0 Z " fill="#C11D0A" transform="translate(41,107)"/>
<path d="M0 0 C4.7497948 4.23630347 7.77223634 8.43170266 8.1875 14.9375 C8.125625 15.618125 8.06375 16.29875 8 17 C5.93701866 14.93701866 5.47283084 13.87734763 4.5625 11.1875 C3.37522041 7.84979054 1.86500725 5.01953555 0 2 C0 1.34 0 0.68 0 0 Z " fill="#59BF92" transform="translate(87,92)"/>
<path d="M0 0 C0.33 0.99 0.66 1.98 1 3 C0.2575 3.556875 -0.485 4.11375 -1.25 4.6875 C-3.91707995 6.93027178 -5.91556232 9.22074975 -8 12 C-8.66 11.67 -9.32 11.34 -10 11 C-8.9015258 9.53737408 -7.7959964 8.08004497 -6.6875 6.625 C-6.07261719 5.81289062 -5.45773438 5.00078125 -4.82421875 4.1640625 C-3 2 -3 2 0 0 Z " fill="#B72616" transform="translate(149,78)"/>
<path d="M0 0 C1.32 0.33 2.64 0.66 4 1 C5.39151652 5.79300133 4.68662689 10.15135782 4 15 C3.67 15 3.34 15 3 15 C3 12.36 3 9.72 3 7 C2.01 6.67 1.02 6.34 0 6 C0 4.02 0 2.04 0 0 Z " fill="#8A463C" transform="translate(98,133)"/>
<path d="M0 0 C1.65 0 3.3 0 5 0 C5 0.99 5 1.98 5 3 C4.34 3 3.68 3 3 3 C3 5.97 3 8.94 3 12 C2.67 12 2.34 12 2 12 C2 9.36 2 6.72 2 4 C1.01 4 0.02 4 -1 4 C-0.67 2.68 -0.34 1.36 0 0 Z " fill="#B0180F" transform="translate(105,122)"/>
<path d="M0 0 C1.32 0.33 2.64 0.66 4 1 C3.34 1 2.68 1 2 1 C2 1.66 2 2.32 2 3 C0.25 4.5078125 0.25 4.5078125 -2 6.125 C-2.7425 6.66382812 -3.485 7.20265625 -4.25 7.7578125 C-4.8275 8.16773437 -5.405 8.57765625 -6 9 C-6 7.35 -6 5.7 -6 4 C-4.7934375 3.566875 -4.7934375 3.566875 -3.5625 3.125 C-0.8673532 2.26737432 -0.8673532 2.26737432 0 0 Z " fill="#C81B09" transform="translate(154,95)"/>
<path d="M0 0 C0 2.31 0 4.62 0 7 C-0.99 6.01 -1.98 5.02 -3 4 C-5.97 6.475 -5.97 6.475 -9 9 C-7.82191948 5.6470016 -6.80593388 3.2447471 -4 1 C-1 0 -1 0 0 0 Z " fill="#EB0803" transform="translate(176,56)"/>
<path d="M0 0 C0.33 0.66 0.66 1.32 1 2 C0.67 2.99 0.34 3.98 0 5 C0.99 5 1.98 5 3 5 C4.54779543 7.26216255 5.77612283 9.55224566 7 12 C3.56404834 10.47291037 0.88087546 8.40072955 -2 6 C-1.125 1.125 -1.125 1.125 0 0 Z " fill="#36CA77" transform="translate(23,128)"/>
<path d="M0 0 C3.465 1.485 3.465 1.485 7 3 C6.67 4.65 6.34 6.3 6 8 C5.01 8 4.02 8 3 8 C3 7.01 3 6.02 3 5 C2.0206121 3.97980427 1.02104551 2.97850195 0 2 C0 1.34 0 0.68 0 0 Z " fill="#81C88E" transform="translate(66,115)"/>
<path d="M0 0 C1.32 0.66 2.64 1.32 4 2 C4 2.66 4 3.32 4 4 C6.475 4.99 6.475 4.99 9 6 C9 6.99 9 7.98 9 9 C8.0925 8.34 7.185 7.68 6.25 7 C3.06824185 4.65060172 3.06824185 4.65060172 -1 5 C-0.67 3.35 -0.34 1.7 0 0 Z " fill="#29D987" transform="translate(28,113)"/>
<path d="M0 0 C1.14926266 0.95421808 2.29430541 1.91352045 3.4375 2.875 C4.07558594 3.40867187 4.71367188 3.94234375 5.37109375 4.4921875 C7 6 7 6 8 8 C5.69 7.67 3.38 7.34 1 7 C0.67 4.69 0.34 2.38 0 0 Z " fill="#B42A10" transform="translate(116,86)"/>
<path d="M0 0 C3.36591866 1.44253657 5.51047079 3.33264727 8 6 C7.34 6 6.68 6 6 6 C5.67 6.66 5.34 7.32 5 8 C2.5 5.6875 2.5 5.6875 0 3 C0 2.01 0 1.02 0 0 Z " fill="#79481F" transform="translate(23,136)"/>
<path d="M0 0 C2.03833424 1.2739589 4.03852126 2.61061923 6 4 C6 4.66 6 5.32 6 6 C6.804375 6.28875 7.60875 6.5775 8.4375 6.875 C11 8 11 8 12 10 C2.70967742 6.38709677 2.70967742 6.38709677 0 3 C0 2.01 0 1.02 0 0 Z " fill="#4BC78B" transform="translate(35,116)"/>
<path d="M0 0 C0.33 0.99 0.66 1.98 1 3 C-1.36292656 5.52588702 -2.66462511 6.88820837 -6 8 C-6.33 8.66 -6.66 9.32 -7 10 C-7.66 9.67 -8.32 9.34 -9 9 C-6.31941902 5.42589203 -3.57410797 2.68058098 0 0 Z " fill="#73C190" transform="translate(145,109)"/>
<path d="M0 0 C0.68449219 0.47050781 1.36898437 0.94101563 2.07421875 1.42578125 C5.39547559 3.21278593 8.08517732 3.69805359 11.8125 4.1875 C12.97394531 4.34605469 14.13539062 4.50460938 15.33203125 4.66796875 C16.21246094 4.77753906 17.09289062 4.88710937 18 5 C18 5.33 18 5.66 18 6 C12.2909775 6.23302133 7.33802868 6.17878722 2 4 C0.5625 1.875 0.5625 1.875 0 0 Z " fill="#2ED489" transform="translate(43,78)"/>
<path d="M0 0 C0.33 0.99 0.66 1.98 1 3 C0.34 3 -0.32 3 -1 3 C-1.226875 3.5775 -1.45375 4.155 -1.6875 4.75 C-3.33038023 7.5663661 -5.39533227 9.08077114 -8 11 C-7.43040847 7.37386801 -6.07625466 5.74482259 -3.4375 3.25 C-2.79683594 2.63640625 -2.15617188 2.0228125 -1.49609375 1.390625 C-1.00238281 0.93171875 -0.50867188 0.4728125 0 0 Z " fill="#8AEDC2" transform="translate(173,48)"/>
<path d="M0 0 C3.73487777 0.4979837 5.81237635 0.87491756 9 3 C8.01 3.33 7.02 3.66 6 4 C6.33 4.66 6.66 5.32 7 6 C2.32307692 4.52307692 2.32307692 4.52307692 0.6875 1.875 C0.460625 1.25625 0.23375 0.6375 0 0 Z " fill="#983A19" transform="translate(29,142)"/>
<path d="M0 0 C0.33 0 0.66 0 1 0 C1 3.3 1 6.6 1 10 C-0.32 10 -1.64 10 -3 10 C-3 7.69 -3 5.38 -3 3 C-2.01 4.485 -2.01 4.485 -1 6 C-0.67 4.02 -0.34 2.04 0 0 Z " fill="#42C47E" transform="translate(146,124)"/>
<path d="M0 0 C0.33 0 0.66 0 1 0 C1 2.97 1 5.94 1 9 C0.01 9 -0.98 9 -2 9 C-2.33 10.32 -2.66 11.64 -3 13 C-3 11.02 -3 9.04 -3 7 C-2.34 7 -1.68 7 -1 7 C-1.020625 6.030625 -1.04125 5.06125 -1.0625 4.0625 C-1 1 -1 1 0 0 Z " fill="#621E15" transform="translate(102,125)"/>
<path d="M0 0 C0.556875 0.226875 1.11375 0.45375 1.6875 0.6875 C-0.2925 1.0175 -2.2725 1.3475 -4.3125 1.6875 C-4.6425 5.6475 -4.9725 9.6075 -5.3125 13.6875 C-5.6425 13.6875 -5.9725 13.6875 -6.3125 13.6875 C-6.6425 10.0575 -6.9725 6.4275 -7.3125 2.6875 C-2.88173077 -0.38942308 -2.88173077 -0.38942308 0 0 Z " fill="#8B4B3D" transform="translate(109.3125,119.3125)"/>
<path d="M0 0 C5.44693314 -0.09688221 10.63904667 -0.12862175 16 1 C16 1.33 16 1.66 16 2 C10.16524985 2.85330338 5.55139349 3.48351814 0 1 C0 0.67 0 0.34 0 0 Z " fill="#70AA82" transform="translate(38,111)"/>
<path d="M0 0 C2.64 0.66 5.28 1.32 8 2 C8 2.66 8 3.32 8 4 C8.61875 4.12375 9.2375 4.2475 9.875 4.375 C12 5 12 5 14 7 C8.25 6.25 8.25 6.25 6 4 C5.154375 3.67 4.30875 3.34 3.4375 3 C1 2 1 2 0 0 Z " fill="#5BB165" transform="translate(31,99)"/>
<path d="M0 0 C1 3 1 3 -0.4375 6.1875 C-1.2109375 7.5796875 -1.2109375 7.5796875 -2 9 C-4 6 -4 6 -3.8125 3.9375 C-3 2 -3 2 0 0 Z " fill="#14E887" transform="translate(92,124)"/>
<path d="M0 0 C4.95 1.98 4.95 1.98 10 4 C10 4.33 10 4.66 10 5 C3.9453125 5.1953125 3.9453125 5.1953125 2 5 C1.34 4.34 0.68 3.68 0 3 C0 2.01 0 1.02 0 0 Z " fill="#7C986A" transform="translate(34,106)"/>
<path d="M0 0 C1.9451 2.91765 2.45276317 4.62537285 3 8 C2.34 8 1.68 8 1 8 C-0.2890625 6.46875 -0.2890625 6.46875 -1.625 4.5 C-2.29402344 3.52546875 -2.29402344 3.52546875 -2.9765625 2.53125 C-3.31429687 2.0259375 -3.65203125 1.520625 -4 1 C-2.68 0.67 -1.36 0.34 0 0 Z " fill="#C71E10" transform="translate(110,104)"/>
<path d="M0 0 C7.48291572 6.15034169 7.48291572 6.15034169 10 10 C7.6875 9.8125 7.6875 9.8125 5 9 C3.3125 6.6875 3.3125 6.6875 2 4 C1.33429481 2.66618636 0.66780311 1.33276451 0 0 Z " fill="#9E381A" transform="translate(106,76)"/>
<path d="M0 0 C1.32 0.66 2.64 1.32 4 2 C3.67 2.66 3.34 3.32 3 4 C3.99 4 4.98 4 6 4 C6 4.66 6 5.32 6 6 C2.7 5.01 -0.6 4.02 -4 3 C-2.68 2.01 -1.36 1.02 0 0 Z " fill="#A23518" transform="translate(68,68)"/>
<path d="M0 0 C2.89932357 2.39509338 3.50168276 4.31245243 4 8 C3.01 8.495 3.01 8.495 2 9 C0.4375 6.1875 0.4375 6.1875 -1 3 C-0.67 2.01 -0.34 1.02 0 0 Z " fill="#69B381" transform="translate(24,94)"/>
<path d="M0 0 C2.96404505 2.80804268 5.44499019 5.18315774 7 9 C1.125 6.125 1.125 6.125 0 5 C-0.04063832 3.33382885 -0.042721 1.66611905 0 0 Z " fill="#2BDC7F" transform="translate(28,92)"/>
<path d="M0 0 C0.66 0.99 1.32 1.98 2 3 C1.01 4.98 0.02 6.96 -1 9 C-1.66 9 -2.32 9 -3 9 C-3 7.35 -3 5.7 -3 4 C-2.01 3.67 -1.02 3.34 0 3 C0 2.01 0 1.02 0 0 Z " fill="#7FBF97" transform="translate(93,131)"/>
<path d="M0 0 C0.94875 0.350625 1.8975 0.70125 2.875 1.0625 C5.87060172 2.35026777 5.87060172 2.35026777 8 1 C8.33 2.65 8.66 4.3 9 6 C4.64464931 4.83857315 2.35380297 3.92300495 0 0 Z " fill="#15E684" transform="translate(26,135)"/>
<path d="M0 0 C0 4.38968456 -2.12805101 5.76905739 -5 9 C-5.99 8.67 -6.98 8.34 -8 8 C-5.36 5.36 -2.72 2.72 0 0 Z " fill="#808C5E" transform="translate(136,116)"/>
<path d="M0 0 C1.7074998 1.28062485 3.37373596 2.61767557 5 4 C5 4.66 5 5.32 5 6 C3.35 6.66 1.7 7.32 0 8 C0 5.36 0 2.72 0 0 Z " fill="#46C587" transform="translate(85,51)"/>
<path d="M0 0 C1.32 0 2.64 0 4 0 C4 0.99 4 1.98 4 3 C1.69 3.33 -0.62 3.66 -3 4 C-1.75 2 -1.75 2 0 0 Z " fill="#33C878" transform="translate(146,134)"/>
<path d="M0 0 C3.21043882 1.38188453 5.04936365 2.92421903 7.25 5.625 C8.03117187 6.57246094 8.03117187 6.57246094 8.828125 7.5390625 C9.40820312 8.26222656 9.40820312 8.26222656 10 9 C7.27425729 8.62669176 6.19177915 8.20805399 4.296875 6.15234375 C3.53117187 5.05599609 3.53117187 5.05599609 2.75 3.9375 C2.22921875 3.20402344 1.7084375 2.47054687 1.171875 1.71484375 C0.78515625 1.14894531 0.3984375 0.58304687 0 0 Z " fill="#A77860" transform="translate(111,112)"/>
<path d="M0 0 C-1.62339805 1.70884005 -3.29319053 3.37446717 -5 5 C-5.66 5 -6.32 5 -7 5 C-7.33 4.01 -7.66 3.02 -8 2 C-4.77208445 -0.1519437 -3.71599191 -0.20086443 0 0 Z " fill="#759F70" transform="translate(53,72)"/>
<path d="M0 0 C0 1.32 0 2.64 0 4 C-2.5 5.75 -2.5 5.75 -5 7 C-5.66 6.34 -6.32 5.68 -7 5 C-2.25 0 -2.25 0 0 0 Z " fill="#48CD89" transform="translate(179,46)"/>
<path d="M0 0 C3.79588866 0.54226981 5.47211993 2.20127563 8 5 C7.67 5.66 7.34 6.32 7 7 C6.21625 6.34 5.4325 5.68 4.625 5 C2.28487188 2.79798559 2.28487188 2.79798559 0 3 C0 2.01 0 1.02 0 0 Z " fill="#48A177" transform="translate(27,111)"/>
<path d="M0 0 C0.86625 0.7115625 0.86625 0.7115625 1.75 1.4375 C3.92582084 2.9484867 5.42602448 3.54036151 8 4 C7 5 7 5 3.4375 5.0625 C2.303125 5.041875 1.16875 5.02125 0 5 C0 3.35 0 1.7 0 0 Z " fill="#B42911" transform="translate(124,94)"/>
<path d="M0 0 C5.66153846 1.47692308 5.66153846 1.47692308 7.375 4.125 C7.684375 5.053125 7.684375 5.053125 8 6 C5.69 5.34 3.38 4.68 1 4 C0.67 2.68 0.34 1.36 0 0 Z " fill="#96775A" transform="translate(71,73)"/>
<path d="M0 0 C-2 2 -2 2 -4.3828125 2.1953125 C-5.28773437 2.17210937 -6.19265625 2.14890625 -7.125 2.125 C-8.49011719 2.09792969 -8.49011719 2.09792969 -9.8828125 2.0703125 C-10.58148438 2.04710937 -11.28015625 2.02390625 -12 2 C-12 1.67 -12 1.34 -12 1 C-7.53763531 -0.80619523 -4.68965706 -1.11658501 0 0 Z " fill="#16E684" transform="translate(73,145)"/>
<path d="M0 0 C0.33 1.32 0.66 2.64 1 4 C-0.65 5.32 -2.3 6.64 -4 8 C-3.67 6.02 -3.34 4.04 -3 2 C-2.01 2 -1.02 2 0 2 C0 1.34 0 0.68 0 0 Z " fill="#3FCD7C" transform="translate(85,135)"/>
<path d="M0 0 C0.99 0.33 1.98 0.66 3 1 C1.25 3 1.25 3 -1 5 C-2.32 5 -3.64 5 -5 5 C-5 4.34 -5 3.68 -5 3 C-3.35 2.67 -1.7 2.34 0 2 C0 1.34 0 0.68 0 0 Z " fill="#C31B09" transform="translate(130,119)"/>
<path d="M0 0 C2.5 1.8125 2.5 1.8125 5 4 C5 4.99 5 5.98 5 7 C3.0625 6.3125 3.0625 6.3125 1 5 C0.25 2.375 0.25 2.375 0 0 Z " fill="#7BB684" transform="translate(24,140)"/>
<path d="M0 0 C0.33 0.99 0.66 1.98 1 3 C-0.65 4.65 -2.3 6.3 -4 8 C-4.33 7.01 -4.66 6.02 -5 5 C-3.35 3.35 -1.7 1.7 0 0 Z " fill="#36B262" transform="translate(91,130)"/>
<path d="M0 0 C2.12508244 3.18762365 2.5020163 5.26512223 3 9 C2.01 9 1.02 9 0 9 C0 6.03 0 3.06 0 0 Z " fill="#96A895" transform="translate(148,124)"/>
<path d="M0 0 C2.02054804 1.64169528 4.02043058 3.30911778 6 5 C6 5.33 6 5.66 6 6 C4.35 6 2.7 6 1 6 C0.67 4.02 0.34 2.04 0 0 Z " fill="#A53213" transform="translate(100,70)"/>
</svg>
