<?xml version="1.0" encoding="UTF-8"?>
<svg version="1.1" xmlns="http://www.w3.org/2000/svg" width="152" height="154">
<path d="M0 0 C13.88490584 10.95471192 22.78800285 23.8615523 27.89453125 40.796875 C28.26578125 41.98990234 28.26578125 41.98990234 28.64453125 43.20703125 C33.97639131 64.20123023 28.11266216 84.50597833 17.89453125 102.796875 C17.23453125 103.786875 16.57453125 104.776875 15.89453125 105.796875 C14.90453125 105.466875 13.91453125 105.136875 12.89453125 104.796875 C11.92733219 102.16066781 11.122793 99.62349118 10.39453125 96.921875 C8.8932436 90.62810211 8.8932436 90.62810211 4.89453125 85.796875 C2.20713234 84.7187797 2.20713234 84.7187797 -0.875 83.89453125 C-2.57946289 83.39469727 -2.57946289 83.39469727 -4.31835938 82.88476562 C-6.7062306 82.20455271 -9.09425006 81.52485993 -11.48242188 80.84570312 C-18.68765953 78.73178659 -25.15749116 76.78653209 -30.10546875 70.796875 C-31.67390348 66.09157082 -31.7971385 61.70649508 -31.10546875 56.796875 C-30.14472613 54.91087173 -29.1176539 53.05785698 -28.04296875 51.234375 C-24.53486324 44.35948576 -24.6566298 38.05033249 -24.91796875 30.421875 C-24.94689209 29.29193115 -24.97581543 28.1619873 -25.00561523 26.99780273 C-25.39148768 20.02464737 -26.35357194 15.98597499 -31.10546875 10.796875 C-36.15977094 7.18665915 -42.01180829 6.53088188 -48.10546875 6.796875 C-53.50005947 7.9778152 -57.79416305 9.4855693 -61.73046875 13.421875 C-66.75248646 22.09626923 -66.65278629 37.59650055 -64.57568359 47.26220703 C-63.55617804 50.19565685 -62.16996296 52.77065422 -60.55078125 55.4140625 C-58.3798746 58.99312482 -58.1195704 62.03538609 -58.04296875 66.171875 C-59.59173837 71.45591252 -62.55966526 73.80814938 -67.10546875 76.796875 C-71.93411362 78.88214079 -76.89555299 80.44828846 -81.91796875 81.984375 C-83.9051846 82.59996548 -85.88973973 83.22143364 -87.86979675 83.85969543 C-89.65174909 84.43322144 -91.44059456 84.98520005 -93.22973633 85.53588867 C-96.35669141 86.90703419 -97.44754647 87.85867594 -99.10546875 90.796875 C-99.93058588 93.39088873 -100.65253324 95.91037396 -101.29296875 98.546875 C-101.47021484 99.24425781 -101.64746094 99.94164063 -101.83007812 100.66015625 C-102.26347624 102.37032179 -102.68560893 104.08333544 -103.10546875 105.796875 C-104.859375 105.6953125 -104.859375 105.6953125 -107.10546875 104.796875 C-108.64813346 102.66842707 -109.84529639 100.73633566 -111.04296875 98.421875 C-111.38779297 97.75631592 -111.73261719 97.09075684 -112.08789062 96.4050293 C-121.77112374 76.76028324 -122.96627403 55.49758058 -116.10546875 34.796875 C-114.97831211 31.65294636 -113.68881952 28.73579626 -112.10546875 25.796875 C-111.68652344 25.00152344 -111.26757812 24.20617188 -110.8359375 23.38671875 C-100.99909826 5.85384 -85.16764911 -6.27839327 -66.10546875 -12.203125 C-42.71365029 -18.16519538 -19.57591312 -13.88781761 0 0 Z " fill="#C9CEE0" transform="translate(121.10546875,17.203125)"/>
<path d="M0 0 C1 2 1 2 0.375 4 C-1.39265071 6.57112831 -3.07589059 7.07659703 -6 8 C-4.55746343 4.63408134 -2.66735273 2.48952921 0 0 Z " fill="#DFE1EA" transform="translate(23,24)"/>
</svg>
