<?xml version="1.0" encoding="UTF-8"?>
<svg version="1.1" xmlns="http://www.w3.org/2000/svg" width="152" height="154">
<path d="M0 0 C50.16 0 100.32 0 152 0 C152 50.82 152 101.64 152 154 C101.84 154 51.68 154 0 154 C0 103.18 0 52.36 0 0 Z " fill="#FEFEFE" transform="translate(0,0)"/>
<path d="M0 0 C14.64543327 12.0530775 27.13175202 29.51859211 29.79833984 48.74609375 C29.92521832 50.34862401 30.0269963 51.95323658 30.11083984 53.55859375 C30.17529297 54.55246094 30.23974609 55.54632813 30.30615234 56.5703125 C30.87110481 72.78444826 27.12787982 88.01542238 18.11083984 101.55859375 C15.86083984 103.96875 15.86083984 103.96875 14.11083984 105.55859375 C13.54816406 103.66173828 13.54816406 103.66173828 12.97412109 101.7265625 C12.45815997 100.06610579 11.94117935 98.40596562 11.42333984 96.74609375 C11.1790625 95.91271484 10.93478516 95.07933594 10.68310547 94.22070312 C9.170009 89.38686881 9.170009 89.38686881 5.91162109 85.63671875 C2.31384452 84.25180057 -1.29647488 83.13515806 -5.01416016 82.12109375 C-6.53302973 81.68713102 -8.05126108 81.25092835 -9.56884766 80.8125 C-10.30586914 80.59996582 -11.04289062 80.38743164 -11.80224609 80.16845703 C-25.7355906 76.09668649 -25.7355906 76.09668649 -29.88916016 70.55859375 C-32.2340017 63.18909177 -31.0878733 56.42990347 -27.88916016 49.55859375 C-27.38384766 49.09582031 -26.87853516 48.63304687 -26.35791016 48.15625 C-24.38734482 46.01273611 -24.18212155 44.21690357 -23.70166016 41.37109375 C-23.54310547 40.47003906 -23.38455078 39.56898437 -23.22119141 38.640625 C-23.05683594 37.61001953 -23.05683594 37.61001953 -22.88916016 36.55859375 C-23.54916016 36.55859375 -24.20916016 36.55859375 -24.88916016 36.55859375 C-24.84275391 35.24503906 -24.79634766 33.93148437 -24.74853516 32.578125 C-24.7110075 30.84247071 -24.6746084 29.10679176 -24.63916016 27.37109375 C-24.60564453 26.50677734 -24.57212891 25.64246094 -24.53759766 24.75195312 C-24.45100616 19.33587364 -24.45100616 19.33587364 -26.90478516 14.5703125 C-27.88705078 13.57451172 -27.88705078 13.57451172 -28.88916016 12.55859375 C-28.88916016 11.89859375 -28.88916016 11.23859375 -28.88916016 10.55859375 C-30.20916016 10.22859375 -31.52916016 9.89859375 -32.88916016 9.55859375 C-32.88916016 8.89859375 -32.88916016 8.23859375 -32.88916016 7.55859375 C-41.03564278 6.05406317 -50.76183642 4.50943196 -58.10131836 9.2199707 C-62.20500962 12.2925556 -64.51567448 15.47732312 -65.4140625 20.48364258 C-65.67707921 23.89090444 -65.78295034 27.26662637 -65.82666016 30.68359375 C-65.88950195 32.43349609 -65.88950195 32.43349609 -65.95361328 34.21875 C-66.21161962 41.62448086 -66.21161962 41.62448086 -63.88916016 48.55859375 C-62.89916016 49.05359375 -62.89916016 49.05359375 -61.88916016 49.55859375 C-58.96395199 55.44926523 -57.62559871 62.08237906 -58.88916016 68.55859375 C-62.53457896 74.99014336 -67.41075952 77.67302393 -74.33837891 79.65234375 C-75.34513672 79.91015625 -76.35189453 80.16796875 -77.38916016 80.43359375 C-78.39591797 80.71460937 -79.40267578 80.995625 -80.43994141 81.28515625 C-83.96925978 82.26577944 -87.50317671 83.21895302 -91.06103516 84.09082031 C-94.55839163 84.98536475 -96.58197473 85.77783027 -98.88916016 88.55859375 C-99.73814526 90.46512573 -99.73814526 90.46512573 -100.27587891 92.5703125 C-100.49179688 93.32763672 -100.70771484 94.08496094 -100.93017578 94.86523438 C-101.14351562 95.65091797 -101.35685547 96.43660156 -101.57666016 97.24609375 C-101.91407227 98.44202148 -101.91407227 98.44202148 -102.25830078 99.66210938 C-102.81076917 101.62513534 -103.35114885 103.59155636 -103.88916016 105.55859375 C-116.34237722 93.95979981 -119.79857078 75.85578855 -120.38916016 59.43359375 C-119.61484802 37.54637083 -110.34054115 19.06663826 -94.65478516 3.91015625 C-67.93315255 -18.81077995 -28.23779314 -21.54509314 0 0 Z " fill="#C7CCDF" transform="translate(120.88916015625,17.44140625)"/>
</svg>
