<svg xmlns="http://www.w3.org/2000/svg" xmlns:xlink="http://www.w3.org/1999/xlink" width="48" zoomAndPan="magnify" viewBox="0 0 36 36.000001" height="48" preserveAspectRatio="xMidYMid meet" version="1.0"><defs><g/><clipPath id="8fa9fe5352"><path d="M 3.199219 2.0625 L 14.046875 2.0625 L 14.046875 12.910156 L 3.199219 12.910156 Z M 3.199219 2.0625 " clip-rule="nonzero"/></clipPath><clipPath id="1e833e3e8d"><path d="M 3.296875 14.765625 L 32.898438 14.765625 L 32.898438 19.660156 L 3.296875 19.660156 Z M 3.296875 14.765625 " clip-rule="nonzero"/></clipPath><clipPath id="98b858534a"><path d="M 3 27.710938 L 32.722656 27.710938 L 32.722656 33.515625 L 3 33.515625 Z M 3 27.710938 " clip-rule="nonzero"/></clipPath><clipPath id="6efd37f918"><path d="M 4.613281 27.734375 L 31.09375 27.734375 C 31.519531 27.734375 31.929688 27.902344 32.230469 28.203125 C 32.535156 28.507812 32.703125 28.917969 32.703125 29.34375 L 32.703125 31.902344 C 32.703125 32.332031 32.535156 32.742188 32.230469 33.042969 C 31.929688 33.34375 31.519531 33.515625 31.09375 33.515625 L 4.613281 33.515625 C 4.183594 33.515625 3.773438 33.34375 3.472656 33.042969 C 3.171875 32.742188 3 32.332031 3 31.902344 L 3 29.34375 C 3 28.917969 3.171875 28.507812 3.472656 28.203125 C 3.773438 27.902344 4.183594 27.734375 4.613281 27.734375 Z M 4.613281 27.734375 " clip-rule="nonzero"/></clipPath><clipPath id="a35a9cf96e"><path d="M 3 11 L 8 11 L 8 20 L 3 20 Z M 3 11 " clip-rule="nonzero"/></clipPath><clipPath id="4ac3ab23b5"><path d="M 3 19.609375 L 3.183594 11.191406 L 7.886719 11.292969 L 7.707031 19.710938 Z M 3 19.609375 " clip-rule="nonzero"/></clipPath><clipPath id="e539271058"><path d="M 3 19.609375 L 3.183594 11.210938 L 7.886719 11.3125 L 7.707031 19.710938 Z M 3 19.609375 " clip-rule="nonzero"/></clipPath><clipPath id="f5ca6d95c8"><path d="M 27 15 L 33 15 L 33 32 L 27 32 Z M 27 15 " clip-rule="nonzero"/></clipPath><clipPath id="eb52d69066"><path d="M 27.300781 31.683594 L 27.65625 15.339844 L 32.996094 15.457031 L 32.644531 31.800781 Z M 27.300781 31.683594 " clip-rule="nonzero"/></clipPath><clipPath id="2e63fcc9d2"><path d="M 27.335938 30.074219 L 27.621094 16.972656 C 27.628906 16.542969 27.808594 16.136719 28.117188 15.84375 C 28.425781 15.546875 28.839844 15.386719 29.265625 15.394531 L 31.386719 15.441406 C 31.8125 15.449219 32.21875 15.628906 32.515625 15.9375 C 32.8125 16.246094 32.972656 16.660156 32.960938 17.085938 L 32.679688 30.1875 C 32.671875 30.613281 32.492188 31.019531 32.183594 31.316406 C 31.875 31.613281 31.460938 31.773438 31.035156 31.765625 L 28.914062 31.71875 C 28.484375 31.710938 28.078125 31.53125 27.785156 31.222656 C 27.488281 30.914062 27.328125 30.5 27.335938 30.074219 Z M 27.335938 30.074219 " clip-rule="nonzero"/></clipPath><clipPath id="03ceb45458"><path d="M 15 2 L 21 2 L 21 15 L 15 15 Z M 15 2 " clip-rule="nonzero"/></clipPath><clipPath id="f26fd2519c"><path d="M 15.25 14.648438 L 15.523438 2.046875 L 20.457031 2.152344 L 20.183594 14.757812 Z M 15.25 14.648438 " clip-rule="nonzero"/></clipPath><clipPath id="7e0cc20e84"><path d="M 15.25 14.648438 L 15.523438 2.054688 L 20.457031 2.160156 L 20.183594 14.757812 Z M 15.25 14.648438 " clip-rule="nonzero"/></clipPath><clipPath id="17735abba5"><path d="M 27 2 L 33 2 L 33 15 L 27 15 Z M 27 2 " clip-rule="nonzero"/></clipPath><clipPath id="d1f1baed0c"><path d="M 27.304688 14.648438 L 27.574219 2.046875 L 32.507812 2.152344 L 32.238281 14.757812 Z M 27.304688 14.648438 " clip-rule="nonzero"/></clipPath><clipPath id="bb75c4905e"><path d="M 27.304688 14.648438 L 27.574219 2.054688 L 32.507812 2.160156 L 32.238281 14.757812 Z M 27.304688 14.648438 " clip-rule="nonzero"/></clipPath><clipPath id="bfb095cf0d"><path d="M 3 21 L 8 21 L 8 32 L 3 32 Z M 3 21 " clip-rule="nonzero"/></clipPath><clipPath id="74e4696570"><path d="M 3.003906 31.6875 L 3.21875 21.710938 L 7.878906 21.8125 L 7.664062 31.785156 Z M 3.003906 31.6875 " clip-rule="nonzero"/></clipPath><clipPath id="54a1c47d29"><path d="M 3.039062 30.074219 L 3.183594 23.328125 C 3.191406 22.902344 3.371094 22.496094 3.679688 22.199219 C 3.988281 21.902344 4.402344 21.742188 4.828125 21.753906 L 6.265625 21.78125 C 6.695312 21.792969 7.101562 21.972656 7.394531 22.28125 C 7.691406 22.589844 7.851562 23 7.84375 23.429688 L 7.699219 30.175781 C 7.6875 30.601562 7.507812 31.007812 7.199219 31.304688 C 6.890625 31.601562 6.480469 31.761719 6.050781 31.75 L 4.613281 31.71875 C 4.1875 31.710938 3.78125 31.53125 3.484375 31.222656 C 3.1875 30.914062 3.027344 30.503906 3.039062 30.074219 Z M 3.039062 30.074219 " clip-rule="nonzero"/></clipPath></defs><g clip-path="url(#8fa9fe5352)"><path fill="#00bf63" d="M 3.199219 2.0625 L 14.046875 2.0625 L 14.046875 12.910156 L 3.199219 12.910156 Z M 3.199219 2.0625 " fill-opacity="1" fill-rule="nonzero"/></g><g fill="#ff3131" fill-opacity="1"><g transform="translate(16.45485, 13.979536)"><g><path d="M 3.6875 0 L 1.53125 0 L 1.53125 -11.828125 L 4.59375 -11.828125 L 7.59375 -3.125 L 7.765625 -3.125 L 10.734375 -11.828125 L 13.734375 -11.828125 L 13.734375 0 L 11.515625 0 L 11.515625 -7.8125 L 11.3125 -7.859375 L 8.578125 0 L 6.625 0 L 3.890625 -7.859375 L 3.6875 -7.8125 Z M 3.6875 0 "/></g></g></g><g clip-path="url(#1e833e3e8d)"><path fill="#00bf63" d="M 3.296875 14.765625 L 32.90625 14.765625 L 32.90625 19.660156 L 3.296875 19.660156 Z M 3.296875 14.765625 " fill-opacity="1" fill-rule="nonzero"/></g><g clip-path="url(#98b858534a)"><g clip-path="url(#6efd37f918)"><path fill="#00bf63" d="M 3 27.734375 L 32.703125 27.734375 L 32.703125 33.515625 L 3 33.515625 Z M 3 27.734375 " fill-opacity="1" fill-rule="nonzero"/></g></g><g clip-path="url(#a35a9cf96e)"><g clip-path="url(#4ac3ab23b5)"><g clip-path="url(#e539271058)"><path fill="#00bf63" d="M 3 19.609375 L 3.183594 11.210938 L 7.886719 11.3125 L 7.707031 19.710938 Z M 3 19.609375 " fill-opacity="1" fill-rule="nonzero"/></g></g></g><g clip-path="url(#f5ca6d95c8)"><g clip-path="url(#eb52d69066)"><g clip-path="url(#2e63fcc9d2)"><path fill="#00bf63" d="M 27.300781 31.683594 L 27.65625 15.363281 L 32.996094 15.476562 L 32.644531 31.800781 Z M 27.300781 31.683594 " fill-opacity="1" fill-rule="nonzero"/></g></g></g><g clip-path="url(#03ceb45458)"><g clip-path="url(#f26fd2519c)"><g clip-path="url(#7e0cc20e84)"><path fill="#ff3131" d="M 15.25 14.648438 L 15.519531 2.0625 L 20.457031 2.171875 L 20.183594 14.757812 Z M 15.25 14.648438 " fill-opacity="1" fill-rule="nonzero"/></g></g></g><g clip-path="url(#17735abba5)"><g clip-path="url(#d1f1baed0c)"><g clip-path="url(#bb75c4905e)"><path fill="#ff3131" d="M 27.304688 14.648438 L 27.574219 2.0625 L 32.507812 2.171875 L 32.238281 14.757812 Z M 27.304688 14.648438 " fill-opacity="1" fill-rule="nonzero"/></g></g></g><g clip-path="url(#bfb095cf0d)"><g clip-path="url(#74e4696570)"><g clip-path="url(#54a1c47d29)"><path fill="#00bf63" d="M 3.003906 31.6875 L 3.21875 21.710938 L 7.878906 21.8125 L 7.664062 31.785156 Z M 3.003906 31.6875 " fill-opacity="1" fill-rule="nonzero"/></g></g></g></svg>