<svg xmlns="http://www.w3.org/2000/svg" xmlns:xlink="http://www.w3.org/1999/xlink" width="500" zoomAndPan="magnify" viewBox="0 0 375 374.999991" height="500" preserveAspectRatio="xMidYMid meet" version="1.0"><defs><g/><clipPath id="bb56f2f746"><path d="M 74.746094 69.117188 L 157.375 69.117188 L 157.375 151.746094 L 74.746094 151.746094 Z M 74.746094 69.117188 " clip-rule="nonzero"/></clipPath><clipPath id="507fc39792"><path d="M 75.496094 165.863281 L 301.054688 165.863281 L 301.054688 203.167969 L 75.496094 203.167969 Z M 75.496094 165.863281 " clip-rule="nonzero"/></clipPath><clipPath id="49f96d02e2"><path d="M 92.746094 165.863281 L 283.753906 165.863281 C 288.328125 165.863281 292.71875 167.683594 295.953125 170.917969 C 299.1875 174.152344 301.003906 178.539062 301.003906 183.113281 L 301.003906 185.917969 C 301.003906 190.492188 299.1875 194.878906 295.953125 198.113281 C 292.71875 201.347656 288.328125 203.167969 283.753906 203.167969 L 92.746094 203.167969 C 88.171875 203.167969 83.78125 201.347656 80.546875 198.113281 C 77.3125 194.878906 75.496094 190.492188 75.496094 185.917969 L 75.496094 183.113281 C 75.496094 178.539062 77.3125 174.152344 80.546875 170.917969 C 83.78125 167.683594 88.171875 165.863281 92.746094 165.863281 Z M 92.746094 165.863281 " clip-rule="nonzero"/></clipPath><clipPath id="1029c451ab"><path d="M 73.246094 264.644531 L 299.664062 264.644531 L 299.664062 308.691406 L 73.246094 308.691406 Z M 73.246094 264.644531 " clip-rule="nonzero"/></clipPath><clipPath id="84c4684b63"><path d="M 90.496094 264.644531 L 282.253906 264.644531 C 286.828125 264.644531 291.21875 266.464844 294.453125 269.699219 C 297.6875 272.933594 299.503906 277.320312 299.503906 281.894531 L 299.503906 291.441406 C 299.503906 296.015625 297.6875 300.402344 294.453125 303.636719 C 291.21875 306.875 286.828125 308.691406 282.253906 308.691406 L 90.496094 308.691406 C 85.921875 308.691406 81.53125 306.875 78.296875 303.636719 C 75.0625 300.402344 73.246094 296.015625 73.246094 291.441406 L 73.246094 281.894531 C 73.246094 277.320312 75.0625 272.933594 78.296875 269.699219 C 81.53125 266.464844 85.921875 264.644531 90.496094 264.644531 Z M 90.496094 264.644531 " clip-rule="nonzero"/></clipPath><clipPath id="e1f011be24"><path d="M 73 78 L 117 78 L 117 203 L 73 203 Z M 73 78 " clip-rule="nonzero"/></clipPath><clipPath id="b861a9c0a2"><path d="M 73.25 202.28125 L 75.9375 77.792969 L 116.640625 78.671875 L 113.949219 203.160156 Z M 73.25 202.28125 " clip-rule="nonzero"/></clipPath><clipPath id="e0d3ac8606"><path d="M 73.621094 185.035156 L 75.5625 95.183594 C 75.660156 90.609375 77.570312 86.261719 80.875 83.097656 C 84.179688 79.933594 88.605469 78.210938 93.179688 78.308594 L 99.390625 78.441406 C 103.964844 78.542969 108.3125 80.453125 111.476562 83.757812 C 114.640625 87.0625 116.363281 91.488281 116.261719 96.0625 L 114.324219 185.914062 C 114.226562 190.488281 112.3125 194.835938 109.007812 198 C 105.703125 201.164062 101.277344 202.886719 96.703125 202.789062 L 90.496094 202.652344 C 85.921875 202.554688 81.574219 200.644531 78.410156 197.339844 C 75.246094 194.035156 73.523438 189.609375 73.621094 185.035156 Z M 73.621094 185.035156 " clip-rule="nonzero"/></clipPath><clipPath id="41fd8d4ac8"><path d="M 258 170 L 302 170 L 302 296 L 258 296 Z M 258 170 " clip-rule="nonzero"/></clipPath><clipPath id="72d9d7ec26"><path d="M 258.375 294.808594 L 261.0625 170.320312 L 301.761719 171.199219 L 299.074219 295.6875 Z M 258.375 294.808594 " clip-rule="nonzero"/></clipPath><clipPath id="24de726b40"><path d="M 258.746094 277.5625 L 260.6875 187.710938 C 260.785156 183.136719 262.695312 178.789062 266 175.625 C 269.304688 172.460938 273.730469 170.738281 278.304688 170.835938 L 284.511719 170.96875 C 289.085938 171.070312 293.433594 172.980469 296.597656 176.285156 C 299.765625 179.589844 301.484375 184.015625 301.386719 188.589844 L 299.449219 278.441406 C 299.347656 283.015625 297.4375 287.363281 294.132812 290.527344 C 290.828125 293.691406 286.402344 295.414062 281.828125 295.316406 L 275.621094 295.179688 C 271.046875 295.082031 266.699219 293.171875 263.535156 289.867188 C 260.371094 286.5625 258.648438 282.136719 258.746094 277.5625 Z M 258.746094 277.5625 " clip-rule="nonzero"/></clipPath><clipPath id="0b4fd517a5"><path d="M 166 69 L 207 69 L 207 166 L 166 166 Z M 166 69 " clip-rule="nonzero"/></clipPath><clipPath id="11d079c538"><path d="M 166.550781 165.046875 L 168.621094 69.03125 L 206.207031 69.84375 L 204.132812 165.855469 Z M 166.550781 165.046875 " clip-rule="nonzero"/></clipPath><clipPath id="c8481584ee"><path d="M 166.550781 165.046875 L 168.621094 69.109375 L 206.203125 69.917969 L 204.132812 165.855469 Z M 166.550781 165.046875 " clip-rule="nonzero"/></clipPath><clipPath id="c4c2c5bed7"><path d="M 258 69 L 299 69 L 299 166 L 258 166 Z M 258 69 " clip-rule="nonzero"/></clipPath><clipPath id="98bf2d4b3b"><path d="M 258.371094 165.046875 L 260.445312 69.03125 L 298.027344 69.84375 L 295.953125 165.855469 Z M 258.371094 165.046875 " clip-rule="nonzero"/></clipPath><clipPath id="6d328bea5e"><path d="M 258.371094 165.046875 L 260.441406 69.109375 L 298.027344 69.917969 L 295.953125 165.855469 Z M 258.371094 165.046875 " clip-rule="nonzero"/></clipPath><clipPath id="235dcbd62b"><path d="M 73 219 L 111 219 L 111 296 L 73 296 Z M 73 219 " clip-rule="nonzero"/></clipPath><clipPath id="eb08046ea4"><path d="M 73.246094 294.808594 L 74.886719 218.824219 L 110.382812 219.589844 L 108.742188 295.574219 Z M 73.246094 294.808594 " clip-rule="nonzero"/></clipPath><clipPath id="ec950ed403"><path d="M 73.617188 277.5625 L 74.515625 236.117188 C 74.613281 231.542969 76.523438 227.195312 79.828125 224.03125 C 83.132812 220.867188 87.558594 219.144531 92.132812 219.242188 L 93.136719 219.265625 C 97.710938 219.363281 102.058594 221.277344 105.222656 224.578125 C 108.386719 227.882812 110.109375 232.308594 110.011719 236.882812 L 109.117188 278.328125 C 109.015625 282.902344 107.105469 287.25 103.800781 290.414062 C 100.496094 293.578125 96.070312 295.300781 91.496094 295.203125 L 90.492188 295.179688 C 85.917969 295.082031 81.570312 293.171875 78.40625 289.867188 C 75.242188 286.5625 73.519531 282.136719 73.617188 277.5625 Z M 73.617188 277.5625 " clip-rule="nonzero"/></clipPath></defs><rect x="-37.5" width="450" fill="#ffffff" y="-37.499999" height="449.999989" fill-opacity="1"/><rect x="-37.5" width="450" fill="#ffffff" y="-37.499999" height="449.999989" fill-opacity="1"/><g clip-path="url(#bb56f2f746)"><path fill="#00bf63" d="M 74.746094 69.117188 L 157.375 69.117188 L 157.375 151.746094 L 74.746094 151.746094 Z M 74.746094 69.117188 " fill-opacity="1" fill-rule="nonzero"/></g><g fill="#ff3131" fill-opacity="1"><g transform="translate(175.729623, 159.881479)"><g><path d="M 28.0625 0 L 11.71875 0 L 11.71875 -90.1875 L 35.03125 -90.1875 L 57.859375 -23.875 L 59.15625 -23.875 L 81.859375 -90.1875 L 104.609375 -90.1875 L 104.609375 0 L 87.71875 0 L 87.71875 -59.59375 L 86.171875 -59.828125 L 65.328125 0 L 50.453125 0 L 29.609375 -59.828125 L 28.0625 -59.59375 Z M 28.0625 0 "/></g></g></g><g clip-path="url(#507fc39792)"><g clip-path="url(#49f96d02e2)"><path fill="#00bf63" d="M 75.496094 165.863281 L 301.054688 165.863281 L 301.054688 203.167969 L 75.496094 203.167969 Z M 75.496094 165.863281 " fill-opacity="1" fill-rule="nonzero"/></g></g><g clip-path="url(#1029c451ab)"><g clip-path="url(#84c4684b63)"><path fill="#00bf63" d="M 73.246094 264.644531 L 299.492188 264.644531 L 299.492188 308.691406 L 73.246094 308.691406 Z M 73.246094 264.644531 " fill-opacity="1" fill-rule="nonzero"/></g></g><g clip-path="url(#e1f011be24)"><g clip-path="url(#b861a9c0a2)"><g clip-path="url(#e0d3ac8606)"><path fill="#00bf63" d="M 73.25 202.28125 L 75.933594 77.949219 L 116.636719 78.828125 L 113.949219 203.160156 Z M 73.25 202.28125 " fill-opacity="1" fill-rule="nonzero"/></g></g></g><g clip-path="url(#41fd8d4ac8)"><g clip-path="url(#72d9d7ec26)"><g clip-path="url(#24de726b40)"><path fill="#00bf63" d="M 258.375 294.808594 L 261.058594 170.476562 L 301.757812 171.355469 L 299.074219 295.6875 Z M 258.375 294.808594 " fill-opacity="1" fill-rule="nonzero"/></g></g></g><g clip-path="url(#0b4fd517a5)"><g clip-path="url(#11d079c538)"><g clip-path="url(#c8481584ee)"><path fill="#ff3131" d="M 166.550781 165.046875 L 168.621094 69.175781 L 206.203125 69.988281 L 204.132812 165.855469 Z M 166.550781 165.046875 " fill-opacity="1" fill-rule="nonzero"/></g></g></g><g clip-path="url(#c4c2c5bed7)"><g clip-path="url(#98bf2d4b3b)"><g clip-path="url(#6d328bea5e)"><path fill="#ff3131" d="M 258.371094 165.046875 L 260.441406 69.175781 L 298.023438 69.988281 L 295.953125 165.855469 Z M 258.371094 165.046875 " fill-opacity="1" fill-rule="nonzero"/></g></g></g><g clip-path="url(#235dcbd62b)"><g clip-path="url(#eb08046ea4)"><g clip-path="url(#ec950ed403)"><path fill="#00bf63" d="M 73.246094 294.808594 L 74.886719 218.824219 L 110.382812 219.589844 L 108.742188 295.574219 Z M 73.246094 294.808594 " fill-opacity="1" fill-rule="nonzero"/></g></g></g></svg>